<svg width="428" height="308" viewBox="0 0 428 308" fill="none" xmlns="http://www.w3.org/2000/svg">
<path fill-rule="evenodd" clip-rule="evenodd" d="M13.2448 200.127C5.18275 185.737 0.769531 170.196 0.769531 153.95C0.769531 115.916 24.9599 81.7409 63.5306 57.1634C95.0829 37.0581 136.403 23.2632 182.493 18.8995C225.681 2.83131 268.775 -2.75564 305.95 1.52138C351.532 6.76555 388.479 26.895 405.434 61.0293C412.674 75.6045 415.642 91.4718 414.824 107.897C422.842 122.253 427.23 137.752 427.23 153.95C427.23 191.984 403.04 226.16 364.469 250.737C333.019 270.777 291.866 284.548 245.956 288.959C202.641 305.135 159.404 310.768 122.12 306.478C76.5384 301.234 39.5911 281.104 22.636 246.97C15.4 232.402 12.4312 216.544 13.2448 200.127ZM16.9328 199.287C18.1783 178.27 25.8035 156.183 38.9317 134.614C62.1991 96.3867 102.636 60.0251 154.776 34.6986C164.249 30.0971 173.778 26.0206 183.298 22.4611C193.317 21.5272 203.568 21.0432 214 21.0432C272.09 21.0432 324.596 36.0502 362.523 60.2175C383.948 73.8694 400.651 90.3909 411.136 108.735C409.886 129.745 402.262 151.824 389.138 173.385C365.871 211.613 325.434 247.974 273.294 273.301C263.945 277.842 254.542 281.872 245.147 285.398C234.986 286.359 224.586 286.858 214 286.858C155.91 286.858 103.404 271.851 65.4766 247.683C44.099 234.061 27.4216 217.583 16.9328 199.287ZM13.7888 193.37C7.67175 180.889 4.39093 167.645 4.39093 153.95C4.39093 117.582 27.5285 84.3983 65.4766 60.2175C93.4333 42.4034 129.311 29.5664 169.508 24.0483C164.049 26.348 158.597 28.8166 153.165 31.4551C100.498 57.0378 59.4955 93.8352 35.8187 132.735C23.6336 152.755 16.0064 173.396 13.7888 193.37ZM232.027 289.999C193.485 302.573 155.556 306.694 122.519 302.893C77.6778 297.734 42.1112 278.037 25.8936 245.388C19.7954 233.111 16.8352 219.812 16.7531 205.962C27.6484 222.907 43.6862 238.092 63.5306 250.737C102.122 275.329 155.326 290.479 214 290.479C220.071 290.479 226.084 290.317 232.027 289.999ZM258.943 283.79C298.957 278.238 334.671 265.431 362.523 247.683C400.471 223.503 423.609 190.319 423.609 153.95C423.609 140.305 420.352 127.108 414.277 114.667C412.054 134.629 404.429 155.257 392.251 175.264C368.575 214.164 327.572 250.962 274.905 276.544C269.599 279.121 264.275 281.536 258.943 283.79ZM411.317 102.048C411.236 88.1945 408.276 74.892 402.176 62.6116C385.959 29.9621 350.392 10.2652 305.551 5.10621C272.621 1.31755 234.831 5.39966 196.417 17.8786C202.216 17.5761 208.08 17.4218 214 17.4218C272.673 17.4218 325.877 32.5724 364.469 57.1634C384.356 69.8357 400.421 85.0596 411.317 102.048Z" fill="currentColor"/>
</svg>
