<svg width="135" height="32" viewBox="0 0 135 32" fill="inherit" xmlns="http://www.w3.org/2000/svg">
<path d="M12.1211 21.1504C8.81841 21.1504 5.82423 22.4597 3.63802 24.5831C5.82423 26.7066 8.81841 28.0159 12.1211 28.0159C15.4238 28.0159 18.418 26.7066 20.6042 24.5831C18.418 22.4597 15.4238 21.1504 12.1211 21.1504Z" fill="#429429"/>
<path d="M12.1211 10.8499C15.4238 10.8499 18.418 9.54058 20.6042 7.41711C18.418 5.29364 15.4238 3.98438 12.1211 3.98438C8.81842 3.98437 5.82424 5.29364 3.63803 7.41711C5.82424 9.54058 8.81842 10.8499 12.1211 10.8499Z" fill="#0A41A8"/>
<path d="M1.88689 5.27253C0.862023 3.67181 1.34036 1.55067 2.95529 0.534819C4.57021 -0.481028 6.71018 -0.00689618 7.73504 1.59382C8.2039 2.32612 8.85177 2.92916 9.61855 3.34699C10.3853 3.76482 11.2462 3.9839 12.1212 3.9839C8.81856 3.9839 5.82439 5.29339 3.6382 7.41675C2.97588 6.77354 2.38763 6.05463 1.88689 5.27253Z" fill="#7D5BA6"/>
<path d="M12.121 28.0157C15.4237 28.0157 18.4178 26.7064 20.604 24.583C21.2664 25.2262 21.8547 25.9452 22.3555 26.7273C23.3803 28.3281 22.902 30.4492 21.2871 31.465C19.6721 32.4809 17.5322 32.0068 16.5073 30.406C16.0385 29.6738 15.3906 29.0707 14.6238 28.6529C13.857 28.235 12.996 28.0157 12.121 28.0157Z" fill="#FFA01C"/>
<path d="M12.1212 21.1479C15.424 21.1479 18.4179 22.457 20.6042 24.5807C22.8484 22.4025 24.2424 19.362 24.2424 15.9988C24.2424 12.6323 22.8547 9.59849 20.6042 7.41699C18.4179 9.54066 15.424 10.8497 12.1212 10.8497C14.9902 10.8497 17.316 13.1553 17.316 15.9988C17.316 18.8424 14.9902 21.1479 12.1212 21.1479Z" fill="#FC7753"/>
<path d="M12.1211 10.8497C8.81848 10.8497 5.82426 9.54041 3.63808 7.41699C1.393 9.59767 0 12.637 0 15.9988C0 19.3606 1.39301 22.3999 3.63807 24.5806C5.82425 22.4572 8.81849 21.1479 12.1211 21.1479C9.25214 21.1478 6.92641 18.8425 6.92641 15.9988C6.92641 13.1551 9.25214 10.8497 12.1211 10.8497Z" fill="#4AA1F4"/>
<path d="M41.3024 19.6515C41.4891 20.3048 41.5824 20.9115 41.5824 21.4715C41.5824 21.9942 41.4891 22.6008 41.3024 23.2915H30.9144C30.8024 23.0115 30.7464 22.6662 30.7464 22.2555C30.7464 21.4902 30.9704 20.7342 31.4184 19.9875L35.2824 14.1075L35.8144 13.4915H31.1104C30.9238 13.0062 30.8304 12.3902 30.8304 11.6435C30.8304 11.0088 30.9238 10.4115 31.1104 9.8515H41.0784C41.1904 10.1315 41.2464 10.4768 41.2464 10.8875C41.2464 11.8395 41.0411 12.6608 40.6304 13.3515L37.1304 19.0075L36.5984 19.6515H41.3024ZM48.6675 9.4875C50.4035 9.4875 51.7755 10.0288 52.7835 11.1115C53.7915 12.1755 54.2862 13.7155 54.2675 15.7315C54.2675 16.4968 54.2302 17.1782 54.1555 17.7755H47.0155C47.0902 18.6342 47.3049 19.2222 47.6595 19.5395C48.0142 19.8382 48.5742 19.9875 49.3395 19.9875C50.2915 19.9875 51.3835 19.6235 52.6155 18.8955C53.4929 19.7168 53.9782 20.8368 54.0715 22.2555C52.5969 23.2635 50.8515 23.7675 48.8355 23.7675C46.8569 23.7675 45.2889 23.1702 44.1315 21.9755C42.9742 20.7808 42.3955 19.0448 42.3955 16.7675C42.3955 14.4715 42.9742 12.6888 44.1315 11.4195C45.2889 10.1315 46.8009 9.4875 48.6675 9.4875ZM47.0155 15.3115H50.0955C50.0955 13.9115 49.6289 13.1742 48.6955 13.0995C47.7249 13.0995 47.1649 13.8368 47.0155 15.3115ZM61.1792 9.4595C62.4112 9.4595 63.3538 9.56217 64.0072 9.7675C63.9885 11.4475 63.5685 12.8008 62.7472 13.8275C62.4112 13.7342 62.0658 13.6875 61.7112 13.6875C61.1885 13.6875 60.7592 13.7622 60.4232 13.9115V23.2915C59.8258 23.4035 59.0605 23.4595 58.1272 23.4595C57.2125 23.4595 56.4565 23.4035 55.8592 23.2915V11.2235C57.2405 10.0475 59.0138 9.4595 61.1792 9.4595ZM70.6298 23.7675C68.6511 23.7675 67.0738 23.1702 65.8978 21.9755C64.7218 20.7808 64.1338 18.9982 64.1338 16.6275C64.1338 14.2942 64.7218 12.5115 65.8978 11.2795C67.0925 10.0475 68.6698 9.4315 70.6298 9.4315C72.5898 9.4315 74.1578 10.0382 75.3338 11.2515C76.5098 12.4648 77.0978 14.2568 77.0978 16.6275C77.0978 18.9422 76.5098 20.7155 75.3338 21.9475C74.1578 23.1608 72.5898 23.7675 70.6298 23.7675ZM70.6298 19.8475C71.8805 19.8475 72.5058 18.7742 72.5058 16.6275C72.5058 14.4435 71.8805 13.3515 70.6298 13.3515C69.3605 13.3515 68.7258 14.4435 68.7258 16.6275C68.7258 18.7742 69.3605 19.8475 70.6298 19.8475Z" fill="inherit"/>
<path d="M82.7194 14.0103C82.7298 13.9998 82.9277 13.7603 83.3131 13.2915C83.6985 12.8332 83.9694 12.5207 84.1256 12.354L84.4225 12.0415C84.6308 11.8436 84.9433 11.7498 85.36 11.7603C85.7767 11.7603 85.9954 11.9686 86.0162 12.3853C86.0162 12.4998 85.9433 12.755 85.7975 13.1509C85.6517 13.5467 85.4537 14.2863 85.2037 15.3696C84.5787 17.9946 84.2662 20.1196 84.2662 21.7446C84.2662 22.4009 84.36 22.7394 84.5475 22.7603C84.8704 22.7603 85.3704 22.3488 86.0475 21.5259C86.6621 20.7863 87.6308 19.0884 88.9537 16.4321C89.1517 16.0884 89.3808 15.9165 89.6412 15.9165C89.7767 15.9478 89.8548 16.0623 89.8756 16.2603C89.8756 16.7811 89.735 17.3957 89.4537 18.104C88.9225 19.4686 88.1204 20.7498 87.0475 21.9478C85.985 23.1457 85.11 23.7446 84.4225 23.7446C83.4121 23.7342 82.8964 22.9061 82.8756 21.2603C82.8756 19.9061 83.0996 17.9842 83.5475 15.4946C82.8808 15.7134 82.2819 16.2394 81.7506 17.0728C81.2298 17.9061 80.6881 19.1144 80.1256 20.6978C79.5423 22.3332 79.1412 23.255 78.9225 23.4634C78.6725 23.6509 78.3964 23.7394 78.0944 23.729C77.7819 23.729 77.6204 23.6196 77.61 23.4009C77.5996 23.1821 78.136 21.6248 79.2194 18.729C80.3027 15.8332 81.5267 12.8436 82.8912 9.76025C84.2662 6.67692 85.0527 4.65609 85.2506 3.69775C85.3235 3.40609 85.5944 3.25505 86.0631 3.24463C86.2194 3.24463 86.3756 3.26546 86.5319 3.30713C86.9694 3.42171 87.1881 3.62484 87.1881 3.9165C87.1881 4.02067 87.1569 4.13525 87.0944 4.26025L86.8756 4.63525C86.0839 6.0415 84.6985 9.1665 82.7194 14.0103ZM95.1881 13.0884C93.5214 13.3696 92.0683 14.4634 90.8287 16.3696C89.6204 18.2238 88.985 20.0571 88.9225 21.8696C91.3079 18.7238 93.3964 15.7967 95.1881 13.0884ZM94.4694 11.7603L95.3912 11.8853C95.5371 11.8853 95.6881 11.8019 95.8444 11.6353C96.011 11.4686 96.2194 11.3853 96.4694 11.3853C96.7298 11.3853 96.9329 11.453 97.0787 11.5884C97.235 11.7238 97.3131 11.8436 97.3131 11.9478C97.3131 12.0415 97.261 12.203 97.1569 12.4321C97.0527 12.6613 96.9902 12.8123 96.9694 12.8853C95.5839 17.229 94.8912 19.9998 94.8912 21.1978C94.9017 21.6144 94.9954 21.828 95.1725 21.8384C95.8079 21.8384 96.8027 21.005 98.1569 19.3384C99.0631 18.2238 99.6464 17.4061 99.9069 16.8853C100.178 16.3644 100.391 16.0884 100.547 16.0571C100.579 16.0571 100.605 16.0519 100.626 16.0415C100.813 16.0623 100.912 16.1717 100.922 16.3696C100.922 16.7446 100.49 17.5884 99.6256 18.9009C97.7819 21.7134 96.1881 23.1196 94.8444 23.1196C93.8756 23.1196 93.3912 22.4425 93.3912 21.0884C93.3912 20.4425 93.5214 19.6405 93.7819 18.6821C94.0423 17.7134 94.1985 17.1092 94.2506 16.8696C94.011 17.1821 93.2089 18.3175 91.8444 20.2759C90.4798 22.2342 89.5006 23.3905 88.9069 23.7446C88.7194 23.8488 88.5579 23.9061 88.4225 23.9165C87.8287 23.9165 87.3964 23.6821 87.1256 23.2134C87.0006 22.9842 86.9381 22.6561 86.9381 22.229C86.9277 21.7915 87.2454 20.7915 87.8912 19.229C88.9329 16.7082 90.1152 14.7655 91.4381 13.4009C92.4798 12.3384 93.4902 11.7915 94.4694 11.7603ZM105.219 13.4634L105.188 13.6665L105.157 13.854C105.157 14.104 104.792 15.104 104.063 16.854C103.324 18.604 102.959 19.8436 102.969 20.5728C102.99 21.8123 103.292 22.4373 103.876 22.4478C104.459 22.4478 105.313 21.7967 106.438 20.4946C107.792 18.9321 108.62 17.755 108.922 16.9634C109.225 16.1821 109.459 15.7915 109.626 15.7915C109.761 15.8019 109.834 15.9478 109.844 16.229C109.844 16.4998 109.813 16.7082 109.751 16.854L109.594 17.2759C109.146 18.4217 108.443 19.6144 107.485 20.854C106.1 22.6769 104.865 23.5884 103.782 23.5884C103.438 23.5884 103.126 23.4998 102.844 23.3228C102.136 22.8748 101.782 22.0311 101.782 20.7915C101.782 20.3853 101.87 19.7603 102.047 18.9165C102.235 18.0728 102.324 17.6196 102.313 17.5571C102.313 17.4842 102.219 17.4061 102.032 17.3228C101.657 17.1561 101.407 17.1353 101.282 17.2603C101.178 17.4061 100.714 18.5311 99.8912 20.6353C99.0787 22.7394 98.5214 23.7915 98.2194 23.7915C98.1256 23.7915 97.9485 23.729 97.6881 23.604C97.4173 23.479 97.2819 23.3071 97.2819 23.0884C97.2819 23.0467 97.4173 22.729 97.6881 22.1353L98.5475 20.1509C99.1517 18.755 99.86 16.8957 100.672 14.5728L102.751 8.69775C102.803 8.55192 102.969 8.4738 103.251 8.46338L103.657 8.44775C104.157 8.44775 104.407 8.63005 104.407 8.99463C104.407 9.17171 104.136 9.95296 103.594 11.3384C103.053 12.7238 102.704 13.7915 102.547 14.5415L102.501 15.0103C102.501 15.1457 102.527 15.2238 102.579 15.2446C102.61 15.2342 102.74 15.005 102.969 14.5571L103.376 13.7603C103.438 13.6665 103.501 13.5415 103.563 13.3853C103.792 12.9582 104.063 12.7446 104.376 12.7446C104.917 12.755 105.199 12.979 105.219 13.4165V13.4634ZM113.001 11.9165L113.219 11.8853C113.761 11.8957 114.027 12.0467 114.016 12.3384C114.006 12.4634 113.975 12.5936 113.922 12.729C113.87 12.854 113.693 13.2394 113.391 13.8853C113.016 14.6873 112.865 15.2394 112.938 15.5415V15.6353L114.094 13.8853C114.844 12.7498 115.402 11.9269 115.766 11.4165C115.87 11.2811 116.047 11.2134 116.297 11.2134C116.547 11.2134 116.751 11.2811 116.907 11.4165C117.074 11.5415 117.162 11.6405 117.172 11.7134L117.079 11.9478C115.204 16.4998 114.266 19.7498 114.266 21.6978C114.266 22.5103 114.532 22.9946 115.063 23.1509C115.553 23.2863 116.053 23.1405 116.563 22.7134C117.99 21.5675 119.266 20.0832 120.391 18.2603L120.688 17.7603C120.792 17.5936 120.954 17.4946 121.172 17.4634C121.454 17.4634 121.594 17.6144 121.594 17.9165C121.594 18.4582 120.995 19.4321 119.797 20.8384C118.61 22.2342 117.725 23.1509 117.141 23.5884C116.568 24.0259 115.938 24.2446 115.251 24.2446C114.574 24.2446 114.016 23.8384 113.579 23.0259C113.277 22.4634 113.126 21.8123 113.126 21.0728C113.126 20.3332 113.297 19.3488 113.641 18.1196C113.995 16.88 114.188 16.1353 114.219 15.8853C114.251 15.6353 114.261 15.4946 114.251 15.4634C113.761 16.0988 113.199 16.9894 112.563 18.1353L111.313 20.3384C111.126 20.6405 110.938 20.7915 110.751 20.7915C110.23 20.7915 109.969 20.4738 109.969 19.8384C109.969 19.5467 110.172 18.9894 110.579 18.1665C110.985 17.3436 111.188 16.7498 111.188 16.3853C111.042 16.6248 110.792 17.078 110.438 17.7446C109.667 19.1925 108.652 20.5467 107.391 21.8071C106.912 22.2759 106.464 22.5571 106.047 22.6509C105.433 22.578 105.256 22.4165 105.516 22.1665C106.225 21.479 106.797 20.8644 107.235 20.3228C108.152 19.1873 108.808 17.8853 109.204 16.4165C109.61 14.9373 109.839 14.0728 109.891 13.8228C109.943 13.5728 110.042 13.1665 110.188 12.604L110.501 11.4946C110.657 10.828 110.834 10.4061 111.032 10.229C111.24 10.0519 111.48 9.96338 111.751 9.96338C112.261 9.96338 112.516 10.13 112.516 10.4634C112.516 10.7759 112.12 11.7446 111.329 13.3696C110.537 14.9842 110.053 16.0415 109.876 16.5415C109.938 16.4686 110.12 16.1925 110.422 15.7134C110.725 15.2342 110.902 14.953 110.954 14.8696C111.016 14.7863 111.131 14.5988 111.297 14.3071C112.183 12.7134 112.751 11.9165 113.001 11.9165Z" fill="inherit"/>
</svg>
