<svg width="113" height="32" viewBox="0 0 113 32" fill="none" xmlns="http://www.w3.org/2000/svg">
<path d="M12.1211 21.1504C8.81841 21.1504 5.82423 22.4597 3.63802 24.5831C5.82423 26.7066 8.81841 28.0159 12.1211 28.0159C15.4238 28.0159 18.418 26.7066 20.6042 24.5831C18.418 22.4597 15.4238 21.1504 12.1211 21.1504Z" fill="#429429"/>
<path d="M12.1211 10.8499C15.4238 10.8499 18.418 9.54058 20.6042 7.41711C18.418 5.29364 15.4238 3.98438 12.1211 3.98438C8.81842 3.98437 5.82424 5.29364 3.63803 7.41711C5.82424 9.54058 8.81842 10.8499 12.1211 10.8499Z" fill="#0A41A8"/>
<path d="M1.88689 5.27253C0.862023 3.67181 1.34036 1.55067 2.95529 0.534819C4.57021 -0.481028 6.71018 -0.00689618 7.73504 1.59382C8.2039 2.32612 8.85177 2.92916 9.61855 3.34699C10.3853 3.76482 11.2462 3.9839 12.1212 3.9839C8.81856 3.9839 5.82439 5.29339 3.6382 7.41675C2.97588 6.77354 2.38763 6.05463 1.88689 5.27253Z" fill="#7D5BA6"/>
<path d="M12.121 28.0157C15.4237 28.0157 18.4178 26.7064 20.604 24.583C21.2664 25.2262 21.8547 25.9452 22.3555 26.7273C23.3803 28.3281 22.902 30.4492 21.2871 31.465C19.6721 32.4809 17.5322 32.0068 16.5073 30.406C16.0385 29.6738 15.3906 29.0707 14.6238 28.6529C13.857 28.235 12.996 28.0157 12.121 28.0157Z" fill="#FFA01C"/>
<path d="M12.1212 21.1479C15.424 21.1479 18.4179 22.457 20.6042 24.5807C22.8484 22.4025 24.2424 19.362 24.2424 15.9988C24.2424 12.6323 22.8547 9.59849 20.6042 7.41699C18.4179 9.54066 15.424 10.8497 12.1212 10.8497C14.9902 10.8497 17.316 13.1553 17.316 15.9988C17.316 18.8424 14.9902 21.1479 12.1212 21.1479Z" fill="#FC7753"/>
<path d="M12.1211 10.8497C8.81848 10.8497 5.82426 9.54041 3.63808 7.41699C1.393 9.59767 0 12.637 0 15.9988C0 19.3606 1.39301 22.3999 3.63807 24.5806C5.82425 22.4572 8.81849 21.1479 12.1211 21.1479C9.25214 21.1478 6.92641 18.8425 6.92641 15.9988C6.92641 13.1551 9.25214 10.8497 12.1211 10.8497Z" fill="#4AA1F4"/>
<path d="M44.867 10.2332C43.6349 10.2332 42.4713 10.4728 41.3761 10.9177V4.62039C40.4521 4.48349 39.5964 4.41504 38.7751 4.41504C37.8852 4.41504 37.0638 4.48349 36.2424 4.62039V27.0375C37.1665 27.1744 38.0221 27.2428 38.8093 27.2428C39.6991 27.2428 40.5205 27.1744 41.3419 27.0375V15.6065C42.2317 15.1273 43.1558 14.8535 44.1141 14.8535C46.1333 14.8535 47.1259 15.9145 47.1259 18.0022V27.0375C48.0157 27.1744 48.8371 27.2428 49.6585 27.2428C50.5483 27.2428 51.4039 27.1744 52.2253 27.0375V16.7017C52.2253 15.5723 52.02 14.5797 51.5751 13.7241C51.1301 12.9027 50.5483 12.2182 49.8296 11.6707C49.1451 11.1573 48.3579 10.7808 47.4681 10.5755C46.5783 10.3701 45.7226 10.2332 44.867 10.2332Z" fill="white"/>
<path d="M62.3673 10.3359C61.5459 10.3359 60.6903 10.4386 59.7662 10.6439C58.8079 10.8493 57.9523 11.1231 57.1309 11.5338C56.3095 11.9445 55.7277 12.3551 55.317 12.6974C55.4197 13.4503 55.6593 14.1006 56.07 14.6482C56.4807 15.1958 56.9598 15.6407 57.5074 15.9487C57.9865 15.6065 58.6026 15.2642 59.424 14.9904C60.2111 14.7166 61.0325 14.5455 61.9224 14.5455C63.0518 14.5455 63.9074 14.7851 64.455 15.1958C65.0026 15.6407 65.2764 16.2225 65.2764 16.9412V17.5915C64.3523 17.3177 63.2229 17.1808 61.8539 17.1124C60.5534 17.1124 59.424 17.2835 58.5341 17.5573C57.6101 17.8653 56.8571 18.276 56.2753 18.7551C55.7277 19.2343 55.317 19.7819 55.0775 20.3979C54.8721 21.014 54.7352 21.63 54.7352 22.2461C54.7352 24.0257 55.3855 25.3605 56.6518 26.2503C57.9523 27.1402 59.7662 27.5851 62.0935 27.5851C64.9684 27.5851 67.7063 27.0717 70.3074 25.9765V17.4546C70.3074 15.9487 70.0336 14.6482 69.4518 13.6215C68.87 12.5947 67.9801 11.8076 66.8165 11.2257C65.6529 10.6439 64.1812 10.3359 62.3673 10.3359ZM59.8347 22.0407C59.8347 21.4931 60.0743 21.0482 60.5192 20.7402C60.9983 20.4664 61.6144 20.2953 62.4357 20.2953C63.4625 20.2953 64.3866 20.4322 65.2422 20.6717V23.6493C64.3866 23.9231 63.5652 24.0257 62.778 24.0257C61.8539 24.0257 61.1352 23.8546 60.6218 23.4781C60.1085 23.1359 59.8347 22.6568 59.8347 22.0407Z" fill="white"/>
<path d="M80.7283 10.2674C79.9069 10.2674 79.0513 10.3701 78.093 10.5755C77.1347 10.7808 76.2791 11.0888 75.4577 11.4995C74.6363 11.9102 73.986 12.3551 73.5069 12.7658V27.0375C74.3625 27.1744 75.2181 27.2428 76.0395 27.2428C76.9293 27.2428 77.7849 27.1744 78.6063 27.0375V15.4011C79.2224 15.0931 80.078 14.922 81.1047 14.922C81.8234 14.922 82.4737 15.0247 83.0555 15.1616C83.9454 13.9979 84.4245 12.5263 84.493 10.7466C83.4662 10.4386 82.2341 10.2674 80.7283 10.2674Z" fill="white"/>
<path d="M104.999 10.2332C103.972 10.2332 103.014 10.4043 102.09 10.6781C101.132 10.9519 100.31 11.3284 99.6259 11.7733C98.2911 10.7466 96.5114 10.2332 94.321 10.2332C93.4312 10.2332 92.4387 10.3701 91.3435 10.5755C90.2483 10.7808 89.2558 11.1231 88.2975 11.6022C87.3392 12.0814 86.6205 12.5263 86.0729 12.937V27.0375C86.9628 27.1744 87.7841 27.2428 88.6055 27.2428C89.4954 27.2428 90.351 27.1744 91.1724 27.0375V15.538C91.9253 15.0931 92.8152 14.8535 93.8077 14.8535C94.766 14.8535 95.4847 15.1273 95.9638 15.6407C96.4772 16.1883 96.7168 16.9412 96.7168 17.9338V27.0375C97.5382 27.1744 98.3938 27.2428 99.2494 27.2428C100.139 27.2428 100.995 27.1744 101.816 27.0375V16.8043L101.748 15.7776C102.603 15.1616 103.527 14.8535 104.52 14.8535C105.444 14.8535 106.163 15.1273 106.642 15.6407C107.121 16.1883 107.361 16.9412 107.361 17.9338V27.0375C108.25 27.1744 109.106 27.2428 109.927 27.2428C110.817 27.2428 111.673 27.1744 112.494 27.0375V16.8043C112.494 15.6407 112.289 14.614 111.844 13.7584C111.433 12.9027 110.852 12.2182 110.133 11.6707C109.448 11.1573 108.627 10.7808 107.703 10.5755C106.813 10.3701 105.889 10.2332 104.999 10.2332Z" fill="white"/>
</svg>
