<svg width="22" height="20" viewBox="0 0 22 20" fill="currentColor"  xmlns="http://www.w3.org/2000/svg">
<path fill-rule="evenodd" clip-rule="evenodd" d="M0.461046 0.157667C0.748304 -0.0261297 1.10942 -0.0508664 1.41906 0.0920429L7.51506 2.90558L14.1061 0.0808572C14.3664 -0.03072 14.6619 -0.026655 14.9191 0.0920429L21.4191 3.09204C21.7732 3.2555 22 3.60995 22 4V19C22 19.341 21.8262 19.6585 21.539 19.8423C21.2517 20.0261 20.8906 20.0509 20.5809 19.908L14.4849 17.0944L7.89392 19.9191C7.63357 20.0307 7.33812 20.0267 7.08094 19.908L0.580942 16.908C0.226791 16.7445 0 16.3901 0 16V1C0 0.658978 0.173789 0.341463 0.461046 0.157667ZM6.5 17.4371V4.63983L2 2.56291V15.3602L6.5 17.4371ZM8.5 17.4835L13.5 15.3406V2.51654L8.5 4.6594V17.4835ZM15.5 2.56291V15.3602L20 17.4371V4.63983L17.3312 3.40806C17.3311 3.40803 17.3312 3.40809 17.3312 3.40806L15.5 2.56291Z" />
</svg>
