<svg width="24" height="24" viewBox="0 0 24 24" fill="currentColor"  xmlns="http://www.w3.org/2000/svg">
<path d="M8.29289 5.29289C8.68342 4.90237 9.31658 4.90237 9.70711 5.29289C10.0976 5.68342 10.0976 6.31658 9.70711 6.70711L5.41421 11H21C21.5523 11 22 11.4477 22 12C22 12.5523 21.5523 13 21 13H5.41421L9.70711 17.2929C10.0976 17.6834 10.0976 18.3166 9.70711 18.7071C9.31658 19.0976 8.68342 19.0976 8.29289 18.7071L2.29289 12.7071C2.19396 12.6082 2.1201 12.4937 2.07129 12.3715C2.02978 12.2676 2.0064 12.1581 2.00114 12.048C2.00038 12.032 2.00001 12.016 2.00001 12C2.00001 11.8687 2.0253 11.7434 2.07129 11.6285C2.1201 11.5063 2.19396 11.3918 2.29289 11.2929L8.29289 5.29289Z" />
</svg>
