<svg width="24" height="24" viewBox="0 0 24 24" fill="currentColor"  xmlns="http://www.w3.org/2000/svg">
<path fill-rule="evenodd" clip-rule="evenodd" d="M12 1C7.30557 1 3.5 4.80557 3.5 9.5C3.5 13.1044 5.55962 16.4572 7.47324 18.8173C8.44541 20.0163 9.41517 21.002 10.1415 21.688C10.5053 22.0315 10.8096 22.3015 11.0249 22.487C11.1325 22.5798 11.218 22.6515 11.2776 22.7009C11.3074 22.7256 11.3308 22.7448 11.3472 22.7581L11.3666 22.7739L11.3723 22.7785L11.3748 22.7805C11.3751 22.7807 11.3753 22.7809 12 22L11.3753 22.7809C11.7405 23.073 12.2595 23.073 12.6247 22.7809L12 22C12.6247 22.7809 12.6249 22.7807 12.6252 22.7805L12.6258 22.7799L12.6277 22.7785L12.6334 22.7739L12.6528 22.7581C12.6692 22.7448 12.6926 22.7256 12.7224 22.7009C12.782 22.6515 12.8675 22.5798 12.9751 22.487C13.1904 22.3015 13.4947 22.0315 13.8585 21.688C14.5848 21.002 15.5546 20.0163 16.5268 18.8173C18.4404 16.4572 20.5 13.1044 20.5 9.5C20.5 4.80557 16.6944 1 12 1ZM12.4853 20.2339C12.306 20.4033 12.1428 20.5528 12 20.681C11.8572 20.5528 11.694 20.4033 11.5147 20.2339C10.8348 19.5918 9.92959 18.6712 9.02676 17.5577C7.19038 15.2928 5.5 12.3956 5.5 9.5C5.5 5.91013 8.41013 3 12 3C15.5899 3 18.5 5.91013 18.5 9.5C18.5 12.3956 16.8096 15.2928 14.9732 17.5577C14.0704 18.6712 13.1652 19.5918 12.4853 20.2339ZM12 5.5C9.79086 5.5 8 7.29086 8 9.5C8 11.7091 9.79086 13.5 12 13.5C14.2091 13.5 16 11.7091 16 9.5C16 7.29086 14.2091 5.5 12 5.5ZM10 9.5C10 8.39543 10.8954 7.5 12 7.5C13.1046 7.5 14 8.39543 14 9.5C14 10.6046 13.1046 11.5 12 11.5C10.8954 11.5 10 10.6046 10 9.5Z" />
</svg>
