<svg width="24" height="24" viewBox="0 0 24 24" fill="none" xmlns="http://www.w3.org/2000/svg">
<path d="M10.9 15.3H13.1V17.5H10.9V15.3ZM10.9 6.5H13.1V13.1H10.9V6.5ZM12 1C5.917 1 1 5.95 1 12C1 14.9174 2.15893 17.7153 4.22183 19.7782C5.24327 20.7996 6.4559 21.6099 7.79048 22.1627C9.12506 22.7155 10.5555 23 12 23C14.9174 23 17.7153 21.8411 19.7782 19.7782C21.8411 17.7153 23 14.9174 23 12C23 10.5555 22.7155 9.12506 22.1627 7.79048C21.6099 6.4559 20.7996 5.24327 19.7782 4.22183C18.7567 3.20038 17.5441 2.39013 16.2095 1.83733C14.8749 1.28452 13.4445 1 12 1ZM12 20.8C9.66609 20.8 7.42778 19.8729 5.77746 18.2225C4.12714 16.5722 3.2 14.3339 3.2 12C3.2 9.66609 4.12714 7.42778 5.77746 5.77746C7.42778 4.12714 9.66609 3.2 12 3.2C14.3339 3.2 16.5722 4.12714 18.2225 5.77746C19.8729 7.42778 20.8 9.66609 20.8 12C20.8 14.3339 19.8729 16.5722 18.2225 18.2225C16.5722 19.8729 14.3339 20.8 12 20.8Z" fill="white"/>
</svg>
