<svg width="20" height="20" viewBox="0 0 20 20" fill="none" xmlns="http://www.w3.org/2000/svg">
<g clip-path="url(#clip0_3072_22007)">
<path d="M9.99967 0.833984C15.0624 0.833984 19.1663 4.9379 19.1663 10.0007C19.1663 15.0634 15.0624 19.1673 9.99967 19.1673C4.93692 19.1673 0.833008 15.0634 0.833008 10.0007C0.833008 4.9379 4.93692 0.833984 9.99967 0.833984ZM9.99967 2.66732C8.05475 2.66732 6.18949 3.43993 4.81422 4.8152C3.43896 6.19047 2.66634 8.05573 2.66634 10.0007C2.66634 11.9456 3.43896 13.8108 4.81422 15.1861C6.18949 16.5614 8.05475 17.334 9.99967 17.334C11.9446 17.334 13.8099 16.5614 15.1851 15.1861C16.5604 13.8108 17.333 11.9456 17.333 10.0007C17.333 8.05573 16.5604 6.19047 15.1851 4.8152C13.8099 3.43993 11.9446 2.66732 9.99967 2.66732ZM9.99967 13.6673C10.2428 13.6673 10.4759 13.7639 10.6479 13.9358C10.8198 14.1077 10.9163 14.3409 10.9163 14.584C10.9163 14.8271 10.8198 15.0603 10.6479 15.2322C10.4759 15.4041 10.2428 15.5007 9.99967 15.5007C9.75656 15.5007 9.5234 15.4041 9.35149 15.2322C9.17958 15.0603 9.08301 14.8271 9.08301 14.584C9.08301 14.3409 9.17958 14.1077 9.35149 13.9358C9.5234 13.7639 9.75656 13.6673 9.99967 13.6673ZM9.99967 4.95898C10.7718 4.95901 11.5197 5.22789 12.1151 5.71945C12.7105 6.21101 13.1162 6.89456 13.2624 7.65268C13.4086 8.4108 13.2862 9.19617 12.9163 9.87389C12.5464 10.5516 11.9521 11.0793 11.2353 11.3665C11.1297 11.4066 11.0343 11.4695 10.9558 11.5507C10.9154 11.5966 10.909 11.6552 10.9099 11.7157L10.9163 11.834C10.9161 12.0676 10.8266 12.2923 10.6662 12.4622C10.5058 12.6321 10.2866 12.7344 10.0534 12.7481C9.82016 12.7618 9.59049 12.6859 9.41133 12.5359C9.23216 12.386 9.11702 12.1732 9.08942 11.9412L9.08301 11.834V11.6048C9.08301 10.5479 9.93551 9.91357 10.5533 9.66515C10.8048 9.56474 11.0241 9.39773 11.1878 9.18205C11.3515 8.96638 11.4534 8.71019 11.4825 8.44099C11.5115 8.1718 11.4667 7.89977 11.3529 7.65411C11.239 7.40846 11.0604 7.19846 10.8362 7.04667C10.612 6.89488 10.3506 6.80704 10.0803 6.79256C9.80988 6.77809 9.54067 6.83754 9.30153 6.96453C9.0624 7.09152 8.86237 7.28125 8.72294 7.51335C8.5835 7.74544 8.50991 8.01114 8.51009 8.2819C8.51009 8.52502 8.41351 8.75817 8.24161 8.93008C8.0697 9.10199 7.83654 9.19857 7.59342 9.19857C7.35031 9.19857 7.11715 9.10199 6.94524 8.93008C6.77333 8.75817 6.67676 8.52502 6.67676 8.2819C6.67676 7.40061 7.02685 6.55541 7.65002 5.93224C8.27319 5.30908 9.11838 4.95898 9.99967 4.95898Z" fill="white"/>
</g>
<defs>
<clipPath id="clip0_3072_22007">
<rect width="20" height="20" fill="white"/>
</clipPath>
</defs>
</svg>
