<svg xmlns="http://www.w3.org/2000/svg" width="20" height="20" viewBox="0 0 20 20" fill="none">
  <g clip-path="url(#clip0_4258_5758)">
    <path d="M5.83366 9.16669L9.16699 1.66669C9.83003 1.66669 10.4659 1.93008 10.9348 2.39892C11.4036 2.86776 11.667 3.50365 11.667 4.16669V7.50002H16.3837C16.6252 7.49728 16.8645 7.54711 17.085 7.64603C17.3054 7.74496 17.5017 7.89063 17.6602 8.07295C17.8187 8.25527 17.9357 8.46987 18.0031 8.7019C18.0705 8.93392 18.0866 9.17782 18.0503 9.41669L16.9003 16.9167C16.8401 17.3141 16.6382 17.6764 16.3319 17.9367C16.0256 18.197 15.6356 18.3379 15.2337 18.3334H5.83366M5.83366 9.16669V18.3334M5.83366 9.16669H3.33366C2.89163 9.16669 2.46771 9.34228 2.15515 9.65484C1.84259 9.9674 1.66699 10.3913 1.66699 10.8334V16.6667C1.66699 17.1087 1.84259 17.5326 2.15515 17.8452C2.46771 18.1578 2.89163 18.3334 3.33366 18.3334H5.83366" stroke="url(#paint0_linear_4258_5758)" stroke-width="2" stroke-linecap="round" stroke-linejoin="round"/>
  </g>
  <defs>
    <linearGradient id="paint0_linear_4258_5758" x1="1.66699" y1="10.0002" x2="18.0692" y2="10.0002" gradientUnits="userSpaceOnUse">
      <stop stop-color="#339944"/>
      <stop offset="0.199996" stop-color="#FFA01C"/>
      <stop offset="0.399996" stop-color="#FC7753"/>
      <stop offset="0.599996" stop-color="#E6484E"/>
      <stop offset="0.799996" stop-color="#C53446"/>
      <stop offset="1" stop-color="#7D5BA6"/>
    </linearGradient>
    <clipPath id="clip0_4258_5758">
      <rect width="20" height="20" fill="white"/>
    </clipPath>
  </defs>
</svg>