<svg width="24" height="24" viewBox="0 0 24 24" fill="currentColor" xmlns="http://www.w3.org/2000/svg">
  <path
    d="M12 1C18.0753 1 23 5.9247 23 12C23 18.0753 18.0753 23 12 23C5.9247 23 1 18.0753 1 12C1 5.9247 5.9247 1 12 1ZM12 3.2C9.66609 3.2 7.42778 4.12714 5.77746 5.77746C4.12714 7.42778 3.2 9.66609 3.2 12C3.2 14.3339 4.12714 16.5722 5.77746 18.2225C7.42778 19.8729 9.66609 20.8 12 20.8C14.3339 20.8 16.5722 19.8729 18.2225 18.2225C19.8729 16.5722 20.8 14.3339 20.8 12C20.8 9.66609 19.8729 7.42778 18.2225 5.77746C16.5722 4.12714 14.3339 3.2 12 3.2ZM12 16.4C12.2917 16.4 12.5715 16.5159 12.7778 16.7222C12.9841 16.9285 13.1 17.2083 13.1 17.5C13.1 17.7917 12.9841 18.0715 12.7778 18.2778C12.5715 18.4841 12.2917 18.6 12 18.6C11.7083 18.6 11.4285 18.4841 11.2222 18.2778C11.0159 18.0715 10.9 17.7917 10.9 17.5C10.9 17.2083 11.0159 16.9285 11.2222 16.7222C11.4285 16.5159 11.7083 16.4 12 16.4ZM12 5.95C12.9265 5.95003 13.8241 6.27269 14.5386 6.86256C15.253 7.45243 15.7398 8.27269 15.9152 9.18244C16.0907 10.0922 15.9438 11.0346 15.5 11.8479C15.0561 12.6611 14.3429 13.2944 13.4828 13.639C13.3561 13.6871 13.2415 13.7626 13.1473 13.8601C13.0989 13.9151 13.0912 13.9855 13.0923 14.0581L13.1 14.2C13.0997 14.4804 12.9923 14.75 12.7999 14.9539C12.6074 15.1578 12.3444 15.2805 12.0645 15.2969C11.7846 15.3133 11.509 15.2223 11.294 15.0423C11.079 14.8624 10.9408 14.6071 10.9077 14.3287L10.9 14.2V13.925C10.9 12.6567 11.923 11.8955 12.6644 11.5974C12.9661 11.4769 13.2294 11.2765 13.4258 11.0177C13.6222 10.7589 13.7445 10.4514 13.7794 10.1284C13.8142 9.80538 13.7605 9.47894 13.6238 9.18415C13.4872 8.88937 13.2728 8.63737 13.0038 8.45522C12.7347 8.27308 12.4211 8.16766 12.0967 8.1503C11.7722 8.13293 11.4492 8.20427 11.1622 8.35666C10.8753 8.50905 10.6352 8.73672 10.4679 9.01524C10.3006 9.29375 10.2123 9.61259 10.2125 9.9375C10.2125 10.2292 10.0966 10.509 9.89032 10.7153C9.68403 10.9216 9.40424 11.0375 9.1125 11.0375C8.82076 11.0375 8.54097 10.9216 8.33468 10.7153C8.12839 10.509 8.0125 10.2292 8.0125 9.9375C8.0125 8.87995 8.43261 7.86571 9.18041 7.11791C9.92821 6.37011 10.9424 5.95 12 5.95Z" />
</svg>