<svg viewBox="0 0 24 24" fill="currentColor" xmlns="http://www.w3.org/2000/svg">
<g>
    <path d="M12 7C11.1716 7 10.5 7.67158 10.5 8.5C10.5 9.32841 11.1716 10 12 10C12.8284 10 13.5 9.32841 13.5 8.5C13.5 7.67158 12.8284 7 12 7Z" />
    <path fill-rule="evenodd" clip-rule="evenodd" d="M4.5 8.3409C4.5 4.26342 7.88137 1 12 1C16.1186 1 19.5 4.26342 19.5 8.3409C19.5 11.2082 17.6294 13.7447 15.9679 15.4582C15.1148 16.338 14.2653 17.0533 13.6304 17.5482C13.3121 17.7963 13.0457 17.9906 12.8569 18.1242C12.7624 18.191 12.6873 18.2428 12.6346 18.2785L12.6126 18.2934L12.5862 18.3111L12.5728 18.3201L12.5553 18.3317L12.55 18.3352L12.5476 18.3368L12.5422 18.3287L12.5418 18.329L12.5471 18.3371C12.2147 18.5543 11.7853 18.5543 11.4529 18.3371L11.4583 18.3289L11.4578 18.3286L11.4535 18.3351C11.4524 18.3368 11.4524 18.3368 11.4524 18.3368L11.45 18.3352L11.4447 18.3317L11.4272 18.3201C11.4125 18.3103 11.3918 18.2964 11.3654 18.2785C11.3127 18.2428 11.2376 18.191 11.1431 18.1242C10.9543 17.9906 10.6879 17.7963 10.3696 17.5482C9.73466 17.0533 8.88516 16.338 8.03208 15.4582C6.3706 13.7447 4.5 11.2082 4.5 8.3409ZM8.5 8.5C8.5 6.56702 10.067 5 12 5C13.933 5 15.5 6.56702 15.5 8.5C15.5 10.433 13.933 12 12 12C10.067 12 8.5 10.433 8.5 8.5Z" />
    <path d="M5.21628 17.3365C5.74527 17.1778 6.04545 16.6203 5.88675 16.0913C5.72806 15.5623 5.17057 15.2621 4.64158 15.4208C3.68476 15.7079 2.8376 16.0695 2.20732 16.5166C1.60303 16.9452 1 17.6009 1 18.5C1 19.399 1.60301 20.0547 2.20732 20.4834C2.8376 20.9304 3.68476 21.2921 4.64158 21.5791C6.56796 22.157 9.16929 22.5 12 22.5C14.8307 22.5 17.432 22.157 19.3584 21.5791C20.3152 21.2921 21.1624 20.9304 21.7927 20.4834C22.397 20.0547 23 19.399 23 18.5C23 17.6009 22.397 16.9452 21.7927 16.5166C21.1624 16.0695 20.3152 15.7079 19.3584 15.4208C18.8294 15.2621 18.2719 15.5623 18.1132 16.0913C17.9545 16.6203 18.2547 17.1778 18.7837 17.3365C19.6365 17.5923 20.2538 17.8771 20.6356 18.1479C20.8982 18.3342 20.9737 18.4558 20.9942 18.5C20.9737 18.5441 20.8982 18.6658 20.6356 18.852C20.2538 19.1228 19.6365 19.4076 18.7837 19.6635C17.0908 20.1713 14.6921 20.5 12 20.5C9.30786 20.5 6.90919 20.1713 5.21628 19.6635C4.36346 19.4076 3.74615 19.1228 3.36438 18.852C3.10179 18.6658 3.02629 18.5441 3.00582 18.5C3.02629 18.4558 3.10179 18.3342 3.36438 18.1479C3.74615 17.8771 4.36346 17.5923 5.21628 17.3365Z" />
</g>
</svg>
