<svg width="24" height="24" viewBox="0 0 24 24" fill="currentColor"  xmlns="http://www.w3.org/2000/svg">
<path fill-rule="evenodd" clip-rule="evenodd" d="M12 1C8.96271 1 6.21134 2.23231 4.22183 4.22183C2.23231 6.21134 1 8.96271 1 12C1 15.0373 2.23231 17.7887 4.22183 19.7782C6.21134 21.7677 8.96271 23 12 23C15.0373 23 17.7887 21.7677 19.7782 19.7782C21.7677 17.7887 23 15.0373 23 12C23 8.96271 21.7677 6.21134 19.7782 4.22183C17.7887 2.23231 15.0373 1 12 1ZM12 5.5C12.6904 5.5 13.25 6.05964 13.25 6.75C13.25 7.44036 12.6904 8 12 8C11.3096 8 10.75 7.44036 10.75 6.75C10.75 6.05964 11.3096 5.5 12 5.5ZM9.5 17C9.5 17.5523 9.94771 18 10.5 18H14C14.5523 18 15 17.5523 15 17C15 16.4477 14.5523 16 14 16H13.25V10C13.25 9.44772 12.8023 9 12.25 9H11.25C10.6977 9 10.25 9.44772 10.25 10C10.25 10.5523 10.6977 11 11.25 11V16H10.5C9.94771 16 9.5 16.4477 9.5 17Z" />
</svg>
