<svg width="24" height="24" viewBox="0 0 24 24" fill="currentColor"  xmlns="http://www.w3.org/2000/svg">
<path fill-rule="evenodd" clip-rule="evenodd" d="M13 2C13 1.44772 12.5523 1 12 1C11.4477 1 11 1.44772 11 2V4.20802C10.1171 4.5938 9.50001 5.47484 9.50001 6.5C9.50001 7.05612 9.6816 7.56983 9.98871 7.98508L9.01362 13.8356L9.01297 13.8396C8.38289 14.5465 8.00001 15.4785 8.00001 16.5C8.00001 17.1775 8.16843 17.8156 8.46569 18.3748L7.08087 21.6061C6.86331 22.1137 7.09846 22.7016 7.60609 22.9191C8.11372 23.1367 8.7016 22.9015 8.91916 22.3939L9.96816 19.9462C10.2864 20.1343 10.633 20.2795 11 20.374V22C11 22.5523 11.4477 23 12 23C12.5523 23 13 22.5523 13 22V20.374C13.367 20.2795 13.7136 20.1343 14.0319 19.9462L15.0809 22.3939C15.2984 22.9015 15.8863 23.1367 16.3939 22.9191C16.9016 22.7016 17.1367 22.1137 16.9192 21.6061L15.5343 18.3748C15.8316 17.8156 16 17.1775 16 16.5C16 15.4785 15.6171 14.5465 14.9871 13.8396L14.9864 13.8356L14.0113 7.98508C14.3184 7.56983 14.5 7.05612 14.5 6.5C14.5 5.47484 13.883 4.5938 13 4.20802V2ZM12 9C12.0511 9 12.1018 8.99847 12.1521 8.99545L12.7478 12.5698C12.5056 12.524 12.2556 12.5 12 12.5C11.7444 12.5 11.4944 12.524 11.2522 12.5698L11.8479 8.99545C11.8982 8.99847 11.9489 9 12 9Z" />
</svg>
