<svg width="40" height="50" viewBox="0 0 48 59" fill="none" xmlns="http://www.w3.org/2000/svg">
<g filter="url(#filter0_d_4826_20303)">
<path d="M26.3901 42.3585C36.3086 41.1769 43.999 32.7365 43.999 22.5C43.999 11.4543 35.0447 2.5 23.999 2.5C12.9533 2.5 3.99902 11.4543 3.99902 22.5C3.99902 32.7365 11.6895 41.1769 21.608 42.3585L23.999 46.5L26.3901 42.3585Z" fill="#3060E5"/>
<path fill-rule="evenodd" clip-rule="evenodd" d="M24.8322 14.1667C24.8322 13.7064 24.4591 13.3333 23.9989 13.3333C23.5387 13.3333 23.1656 13.7064 23.1656 14.1667V16.0067C22.4298 16.3282 21.9156 17.0624 21.9156 17.9167C21.9156 18.3801 22.0669 18.8082 22.3228 19.1542L21.5103 24.0297L21.5097 24.033C20.9846 24.6221 20.6656 25.3988 20.6656 26.25C20.6656 26.8146 20.8059 27.3464 21.0536 27.8124L19.8996 30.5051C19.7183 30.9281 19.9143 31.418 20.3373 31.5993C20.7603 31.7806 21.2502 31.5846 21.4315 31.1616L22.3057 29.1219C22.5709 29.2786 22.8598 29.3996 23.1656 29.4783V30.8333C23.1656 31.2936 23.5387 31.6667 23.9989 31.6667C24.4591 31.6667 24.8322 31.2936 24.8322 30.8333V29.4783C25.1381 29.3996 25.4269 29.2786 25.6921 29.1219L26.5663 31.1616C26.7476 31.5846 27.2375 31.7806 27.6605 31.5993C28.0835 31.418 28.2795 30.9281 28.0982 30.5051L26.9442 27.8124C27.1919 27.3464 27.3322 26.8146 27.3322 26.25C27.3322 25.3988 27.0132 24.6221 26.4881 24.033L26.4876 24.0297L25.675 19.1542C25.9309 18.8082 26.0822 18.3801 26.0822 17.9167C26.0822 17.0624 25.568 16.3282 24.8322 16.0067V14.1667ZM23.9989 20C24.0415 20 24.0837 19.9987 24.1257 19.9962L24.6221 22.9748C24.4202 22.9367 24.2119 22.9167 23.9989 22.9167C23.7859 22.9167 23.5776 22.9367 23.3757 22.9748L23.8721 19.9962C23.9141 19.9987 23.9563 20 23.9989 20Z" fill="white"/>
<circle cx="23.999" cy="50.5" r="2" fill="#3060E5"/>
</g>
<defs>
<filter id="filter0_d_4826_20303" x="-0.000976562" y="0.5" width="48" height="58" filterUnits="userSpaceOnUse" color-interpolation-filters="sRGB">
<feFlood flood-opacity="0" result="BackgroundImageFix"/>
<feColorMatrix in="SourceAlpha" type="matrix" values="0 0 0 0 0 0 0 0 0 0 0 0 0 0 0 0 0 0 127 0" result="hardAlpha"/>
<feOffset dy="2"/>
<feGaussianBlur stdDeviation="2"/>
<feComposite in2="hardAlpha" operator="out"/>
<feColorMatrix type="matrix" values="0 0 0 0 0 0 0 0 0 0 0 0 0 0 0 0 0 0 0.16 0"/>
<feBlend mode="normal" in2="BackgroundImageFix" result="effect1_dropShadow_4826_20303"/>
<feBlend mode="normal" in="SourceGraphic" in2="effect1_dropShadow_4826_20303" result="shape"/>
</filter>
</defs>
</svg>
