<svg width="122" height="123" viewBox="0 0 122 123" fill="none" xmlns="http://www.w3.org/2000/svg">
<path fill-rule="evenodd" clip-rule="evenodd" d="M5.08334 61.9841C5.08334 31.1021 30.1181 6.06738 61 6.06738C91.8819 6.06738 116.917 31.1021 116.917 61.9841C116.917 92.866 91.8819 117.901 61 117.901C30.1181 117.901 5.08334 92.866 5.08334 61.9841ZM48.0232 63.9889C50.5343 62.7334 51.5521 59.68 50.2966 57.1689C49.041 54.6579 45.9876 53.6401 43.4766 54.8956L33.3099 59.9789C30.7988 61.2344 29.781 64.2879 31.0365 66.7989C32.2921 69.31 35.3455 70.3278 37.8566 69.0723L48.0232 63.9889ZM81.6015 69.0723C84.1126 70.3278 87.166 69.31 88.4216 66.7989C89.6771 64.2879 88.6593 61.2344 86.1482 59.9789L75.9816 54.8956C73.4705 53.6401 70.4171 54.6579 69.1615 57.1689C67.906 59.68 68.9238 62.7334 71.4349 63.9889L81.6015 69.0723ZM60.9998 74.6923C53.1572 74.6923 47.5514 77.8682 43.9611 81.0596C42.1873 82.6363 40.9042 84.2135 40.0528 85.4155C39.6252 86.0192 39.3004 86.5368 39.0718 86.9246C38.9574 87.1188 38.8666 87.2814 38.7985 87.407L38.7419 87.5128C38.6866 87.6101 38.6363 87.7108 38.5915 87.8143C37.4456 90.2967 38.472 93.2575 40.9348 94.4889C43.4431 95.7431 46.4304 94.6749 47.738 92.2492C47.7507 92.2258 47.7814 92.17 47.8308 92.0862C47.9299 91.918 48.1016 91.6414 48.3491 91.292C48.8479 90.5877 49.6299 89.6232 50.7155 88.6583C52.8439 86.7663 56.1339 84.8589 60.9998 84.8589C65.8656 84.8589 69.1556 86.7663 71.284 88.6583C72.3696 89.6232 73.1516 90.5877 73.6505 91.292C73.8979 91.6414 74.0696 91.918 74.1687 92.0862C74.2181 92.17 74.2488 92.2258 74.2615 92.2492C75.5707 94.6741 78.5551 95.7437 81.0648 94.4889C83.5758 93.2334 84.5936 90.18 83.3381 87.6689L83.3283 87.6738L83.3263 87.6696L83.3358 87.6644L83.3334 87.6596L83.3282 87.6492L83.3163 87.6257L83.2862 87.5673L83.2497 87.4979L83.201 87.407C83.1329 87.2814 83.0421 87.1188 82.9277 86.9246C82.6991 86.5368 82.3744 86.0192 81.9467 85.4155C81.0953 84.2135 79.8122 82.6363 78.0384 81.0596C74.4481 77.8682 68.8423 74.6923 60.9998 74.6923Z" fill="white"/>
</svg>
