<svg width="24" height="25" viewBox="0 0 24 25" fill="none" xmlns="http://www.w3.org/2000/svg">
<path d="M12 7.98438C11.1716 7.98438 10.5 8.65596 10.5 9.48438C10.5 10.3128 11.1716 10.9844 12 10.9844C12.8284 10.9844 13.5 10.3128 13.5 9.48438C13.5 8.65596 12.8284 7.98438 12 7.98438Z" fill="#191A1B"/>
<path fill-rule="evenodd" clip-rule="evenodd" d="M4.5 9.32528C4.5 5.24779 7.88137 1.98438 12 1.98438C16.1186 1.98438 19.5 5.24779 19.5 9.32528C19.5 12.1926 17.6294 14.7291 15.9679 16.4426C15.1148 17.3224 14.2653 18.0377 13.6304 18.5326C13.3121 18.7807 13.0457 18.975 12.8569 19.1086C12.7624 19.1754 12.6873 19.2271 12.6346 19.2629L12.6126 19.2778L12.5862 19.2955L12.5728 19.3045L12.5553 19.3161L12.55 19.3195L12.5476 19.3211L12.5422 19.3131L12.5418 19.3133L12.5471 19.3215C12.2147 19.5387 11.7853 19.5387 11.4529 19.3215L11.4583 19.3133L11.4578 19.313L11.4535 19.3195C11.4524 19.3211 11.4524 19.3211 11.4524 19.3211L11.45 19.3195L11.4447 19.3161L11.4272 19.3045C11.4125 19.2947 11.3918 19.2808 11.3654 19.2629C11.3127 19.2271 11.2376 19.1754 11.1431 19.1086C10.9543 18.975 10.6879 18.7807 10.3696 18.5326C9.73466 18.0377 8.88516 17.3224 8.03208 16.4426C6.3706 14.7291 4.5 12.1926 4.5 9.32528ZM8.5 9.48438C8.5 7.55139 10.067 5.98438 12 5.98438C13.933 5.98438 15.5 7.55139 15.5 9.48438C15.5 11.4174 13.933 12.9844 12 12.9844C10.067 12.9844 8.5 11.4174 8.5 9.48438Z" fill="#191A1B"/>
<path d="M5.21628 18.3209C5.74527 18.1622 6.04545 17.6047 5.88675 17.0757C5.72806 16.5467 5.17057 16.2465 4.64158 16.4052C3.68476 16.6923 2.8376 17.0539 2.20732 17.501C1.60303 17.9296 1 18.5853 1 19.4843C1 20.3834 1.60301 21.0391 2.20732 21.4677C2.8376 21.9148 3.68476 22.2764 4.64158 22.5635C6.56796 23.1414 9.16929 23.4843 12 23.4843C14.8307 23.4843 17.432 23.1414 19.3584 22.5635C20.3152 22.2764 21.1624 21.9148 21.7927 21.4677C22.397 21.0391 23 20.3834 23 19.4843C23 18.5853 22.397 17.9296 21.7927 17.501C21.1624 17.0539 20.3152 16.6923 19.3584 16.4052C18.8294 16.2465 18.2719 16.5467 18.1132 17.0757C17.9545 17.6047 18.2547 18.1622 18.7837 18.3209C19.6365 18.5767 20.2538 18.8615 20.6356 19.1323C20.8982 19.3185 20.9737 19.4402 20.9942 19.4843C20.9737 19.5285 20.8982 19.6502 20.6356 19.8364C20.2538 20.1072 19.6365 20.392 18.7837 20.6478C17.0908 21.1557 14.6921 21.4843 12 21.4843C9.30786 21.4843 6.90919 21.1557 5.21628 20.6478C4.36346 20.392 3.74615 20.1072 3.36438 19.8364C3.10179 19.6502 3.02629 19.5285 3.00582 19.4843C3.02629 19.4402 3.10179 19.3185 3.36438 19.1323C3.74615 18.8615 4.36346 18.5767 5.21628 18.3209Z" fill="#191A1B"/>
</svg>
