<svg width="20" height="21" viewBox="0 0 20 21" fill="none" xmlns="http://www.w3.org/2000/svg">
<g clip-path="url(#clip0_944_539)">
<path fill-rule="evenodd" clip-rule="evenodd" d="M10 1.81738C6.08798 1.81738 2.91667 4.98869 2.91667 8.90072C2.91667 11.9044 4.63303 14.6984 6.22771 16.6651C7.03785 17.6643 7.84598 18.4857 8.45126 19.0573C8.75442 19.3437 9.00804 19.5686 9.18739 19.7232C9.27711 19.8005 9.34834 19.8603 9.39801 19.9015C9.42285 19.9221 9.44231 19.938 9.45601 19.9492L9.47218 19.9623L9.47694 19.9661L9.47902 19.9678C9.47923 19.968 9.47943 19.9681 10 19.3174L9.47943 19.9681C9.78378 20.2116 10.2162 20.2116 10.5206 19.9681L10 19.3174C10.5206 19.9681 10.5208 19.968 10.521 19.9678L10.5215 19.9673L10.5231 19.9661L10.5278 19.9623L10.544 19.9492C10.5577 19.938 10.5772 19.9221 10.602 19.9015C10.6517 19.8603 10.7229 19.8005 10.8126 19.7232C10.992 19.5686 11.2456 19.3437 11.5488 19.0573C12.154 18.4857 12.9622 17.6643 13.7723 16.6651C15.367 14.6984 17.0833 11.9044 17.0833 8.90072C17.0833 4.98869 13.912 1.81738 10 1.81738ZM10.4044 17.8457C10.255 17.9868 10.119 18.1114 10 18.2182C9.88102 18.1114 9.74504 17.9868 9.59563 17.8457C9.02903 17.3105 8.27466 16.5434 7.5223 15.6155C5.99199 13.7281 4.58334 11.3137 4.58334 8.90072C4.58334 5.90916 7.00845 3.48405 10 3.48405C12.9916 3.48405 15.4167 5.90916 15.4167 8.90072C15.4167 11.3137 14.008 13.7281 12.4777 15.6155C11.7253 16.5434 10.971 17.3105 10.4044 17.8457ZM10 5.56738C8.15906 5.56738 6.66667 7.05977 6.66667 8.90072C6.66667 10.7417 8.15906 12.234 10 12.234C11.841 12.234 13.3333 10.7417 13.3333 8.90072C13.3333 7.05977 11.841 5.56738 10 5.56738ZM8.33334 8.90072C8.33334 7.98025 9.07953 7.23405 10 7.23405C10.9205 7.23405 11.6667 7.98025 11.6667 8.90072C11.6667 9.82119 10.9205 10.5674 10 10.5674C9.07953 10.5674 8.33334 9.82119 8.33334 8.90072Z" fill="#909399"/>
</g>
<defs>
<clipPath id="clip0_944_539">
<rect width="20" height="20" fill="white" transform="translate(0 0.984375)"/>
</clipPath>
</defs>
</svg>
