<svg width="24" height="24" viewBox="0 0 16 16" fill="none" xmlns="http://www.w3.org/2000/svg">
<g clip-path="url(#clip0_1170_16785)">
<path d="M0.37775 5.56513C0.132688 6.33288 -3.12445e-05 7.15079 5.51734e-09 7.99982C-3.12445e-05 8.84888 0.132719 9.66685 0.377781 10.4346L8 10.7825L15.6222 10.4347C15.8673 9.66688 16 8.84888 16 7.99988C16 7.15082 15.8673 6.33288 15.6222 5.5651L8 5.21729L0.37775 5.56513Z" fill="#F0F0F0"/>
<path d="M15.6222 5.56534L8 5.21753L0.377748 5.56534C0.305123 5.79297 0.242592 6.02506 0.190186 6.261H15.8097C15.7573 6.02503 15.6948 5.7929 15.6222 5.56534Z" fill="#D80027"/>
<path d="M0.190186 9.73926C0.242529 9.9752 0.305061 10.2073 0.377686 10.4349L0.378436 10.4349L7.99987 10.7827L15.6221 10.4349C15.6947 10.2073 15.7572 9.9752 15.8096 9.73926H0.190186Z" fill="#D80027"/>
<path d="M7.99987 16C11.5691 16 14.5919 13.6624 15.6221 10.4348H0.377686C1.40784 13.6624 4.43072 16 7.99987 16Z" fill="#6DA544"/>
<path d="M7.9999 3.13315e-10C4.43072 3.12503e-05 1.4079 2.33762 0.377686 5.56522L15.6221 5.56525C14.592 2.33759 11.5692 -3.12497e-05 7.9999 3.13315e-10Z" fill="#338AF3"/>
<path d="M3.65592 3.3042C3.65592 2.55492 4.18251 1.92898 4.88573 1.77542C4.77767 1.75179 4.66551 1.73901 4.55033 1.73901C3.68589 1.73901 2.98511 2.43976 2.98511 3.30423C2.98511 4.1687 3.68583 4.86945 4.55033 4.86945C4.66551 4.86945 4.77764 4.85664 4.88573 4.83304C4.18254 4.67942 3.65592 4.05348 3.65592 3.3042Z" fill="#F0F0F0"/>
<path d="M5.81094 4.01562L5.91687 4.34172H6.25975L5.98237 4.54328L6.08831 4.86937L5.81094 4.66784L5.5335 4.86937L5.63947 4.54328L5.36206 4.34172H5.70494L5.81094 4.01562Z" fill="#F0F0F0"/>
<path d="M6.90511 4.01562L7.01108 4.34172H7.35395L7.07655 4.54328L7.18252 4.86937L6.90511 4.66784L6.62771 4.86937L6.73367 4.54328L6.4563 4.34172H6.79914L6.90511 4.01562Z" fill="#F0F0F0"/>
<path d="M7.99966 4.01562L8.10559 4.34172H8.4485L8.17109 4.54328L8.27703 4.86937L7.99966 4.66784L7.72222 4.86937L7.82822 4.54328L7.55078 4.34172H7.89369L7.99966 4.01562Z" fill="#F0F0F0"/>
<path d="M9.09414 4.01562L9.20011 4.34172H9.54295L9.26558 4.54328L9.37154 4.86937L9.09414 4.66784L8.8167 4.86937L8.9227 4.54328L8.64526 4.34172H8.98814L9.09414 4.01562Z" fill="#F0F0F0"/>
<path d="M10.1883 4.01562L10.2943 4.34172H10.6372L10.3598 4.54328L10.4658 4.86937L10.1883 4.66784L9.91091 4.86937L10.0169 4.54328L9.7395 4.34172H10.0823L10.1883 4.01562Z" fill="#F0F0F0"/>
<path d="M6.90511 2.87744L7.01108 3.2035H7.35395L7.07655 3.4051L7.18252 3.73116L6.90511 3.52963L6.62771 3.73116L6.73367 3.4051L6.4563 3.2035H6.79914L6.90511 2.87744Z" fill="#F0F0F0"/>
<path d="M7.99966 2.87744L8.10559 3.2035H8.4485L8.17109 3.4051L8.27703 3.73116L7.99966 3.52963L7.72222 3.73116L7.82822 3.4051L7.55078 3.2035H7.89369L7.99966 2.87744Z" fill="#F0F0F0"/>
<path d="M9.09414 2.87744L9.20011 3.2035H9.54295L9.26558 3.4051L9.37154 3.73116L9.09414 3.52963L8.8167 3.73116L8.9227 3.4051L8.64526 3.2035H8.98814L9.09414 2.87744Z" fill="#F0F0F0"/>
<path d="M10.1883 2.87744L10.2943 3.2035H10.6372L10.3598 3.4051L10.4658 3.73116L10.1883 3.52963L9.91091 3.73116L10.0169 3.4051L9.7395 3.2035H10.0823L10.1883 2.87744Z" fill="#F0F0F0"/>
<path d="M7.99966 1.73901L8.10559 2.06514H8.4485L8.17109 2.26667L8.27703 2.59279L7.99966 2.39126L7.72222 2.59279L7.82822 2.26667L7.55078 2.06514H7.89369L7.99966 1.73901Z" fill="#F0F0F0"/>
<path d="M9.09414 1.73901L9.20011 2.06514H9.54295L9.26558 2.26667L9.37154 2.59279L9.09414 2.39126L8.8167 2.59279L8.9227 2.26667L8.64526 2.06514H8.98814L9.09414 1.73901Z" fill="#F0F0F0"/>
<path d="M10.1883 1.73901L10.2943 2.06514H10.6372L10.3598 2.26667L10.4658 2.59279L10.1883 2.39126L9.91091 2.59279L10.0169 2.26667L9.7395 2.06514H10.0823L10.1883 1.73901Z" fill="#F0F0F0"/>
</g>
<rect x="0.5" y="0.5" width="15" height="15" rx="7.5" stroke="white"/>
<defs>
<clipPath id="clip0_1170_16785">
<rect width="16" height="16" rx="8" fill="white"/>
</clipPath>
</defs>
</svg>
