<svg width="25" height="32" viewBox="0 0 25 32" fill="none" xmlns="http://www.w3.org/2000/svg">
<path d="M12.0672 21.144C8.79754 21.144 5.83329 22.4517 3.66895 24.5726C5.83329 26.6935 8.79754 28.0012 12.0672 28.0012C15.3369 28.0012 18.3011 26.6935 20.4655 24.5726C18.3011 22.4517 15.3369 21.144 12.0672 21.144Z" fill="#429429"/>
<path d="M12.0672 10.8562C15.3369 10.8562 18.3011 9.54849 20.4655 7.42759C18.3011 5.3067 15.3369 3.99902 12.0672 3.99902C8.79754 3.99902 5.83329 5.3067 3.66895 7.42759C5.83329 9.54848 8.79754 10.8562 12.0672 10.8562Z" fill="#0A41A8"/>
<path d="M1.93554 5.28566C0.920923 3.68688 1.39448 1.56831 2.99325 0.553701C4.59203 -0.460913 6.7106 0.0126434 7.72521 1.61142C8.18938 2.34282 8.83077 2.94513 9.58988 3.36246C10.349 3.77978 11.2012 3.99859 12.0675 3.99859C8.7979 3.99859 5.83367 5.30649 3.66933 7.42728C3.01364 6.78485 2.43127 6.06681 1.93554 5.28566Z" fill="#7D5BA6"/>
<path d="M12.0676 28.0013C15.3373 28.0013 18.3015 26.6936 20.4658 24.5728C21.1215 25.2152 21.704 25.9333 22.1997 26.7145C23.2143 28.3133 22.7408 30.4318 21.142 31.4464C19.5432 32.4611 17.4247 31.9875 16.41 30.3887C15.9459 29.6573 15.3045 29.055 14.5454 28.6377C13.7863 28.2204 12.9339 28.0013 12.0676 28.0013Z" fill="#FFA01C"/>
<path d="M12.0674 21.1415C15.3371 21.1415 18.3011 22.449 20.4655 24.5701C22.6873 22.3946 24.0674 19.3578 24.0674 15.9987C24.0674 12.6362 22.6936 9.6061 20.4655 7.42725C18.3011 9.54834 15.3371 10.8558 12.0674 10.8558C14.9077 10.8558 17.2102 13.1586 17.2102 15.9987C17.2102 18.8388 14.9077 21.1415 12.0674 21.1415Z" fill="#FC7753"/>
<path d="M12.0673 10.8558C8.79768 10.8557 5.8334 9.54809 3.66908 7.42725C1.44645 9.60527 0.0673828 12.6409 0.0673828 15.9986C0.0673828 19.3564 1.44646 22.392 3.66907 24.57C5.83339 22.4492 8.79768 21.1415 12.0673 21.1415C9.22701 21.1414 6.92453 18.8389 6.92453 15.9986C6.92453 13.1583 9.22701 10.8558 12.0673 10.8558Z" fill="#4AA1F4"/>
</svg>
