<svg width="24" height="24" viewBox="0 0 24 24" fill="currentColor"  xmlns="http://www.w3.org/2000/svg">
<path d="M13.25 1.75C13.25 2.44036 12.6904 3 12 3C11.3096 3 10.75 2.44036 10.75 1.75C10.75 1.05964 11.3096 0.5 12 0.5C12.6904 0.5 13.25 1.05964 13.25 1.75Z" />
<path d="M20.5 4.75C20.5 5.44036 19.9404 6 19.25 6C18.5596 6 18 5.44036 18 4.75C18 4.05964 18.5596 3.5 19.25 3.5C19.9404 3.5 20.5 4.05964 20.5 4.75Z" />
<path d="M22.25 13.25C22.9404 13.25 23.5 12.6904 23.5 12C23.5 11.3096 22.9404 10.75 22.25 10.75C21.5596 10.75 21 11.3096 21 12C21 12.6904 21.5596 13.25 22.25 13.25Z" />
<path d="M20.5 19.25C20.5 19.9404 19.9404 20.5 19.25 20.5C18.5596 20.5 18 19.9404 18 19.25C18 18.5596 18.5596 18 19.25 18C19.9404 18 20.5 18.5596 20.5 19.25Z" />
<path d="M12 23.5C12.6904 23.5 13.25 22.9404 13.25 22.25C13.25 21.5596 12.6904 21 12 21C11.3096 21 10.75 21.5596 10.75 22.25C10.75 22.9404 11.3096 23.5 12 23.5Z" />
<path d="M6 19.25C6 19.9404 5.44036 20.5 4.75 20.5C4.05964 20.5 3.5 19.9404 3.5 19.25C3.5 18.5596 4.05964 18 4.75 18C5.44036 18 6 18.5596 6 19.25Z" />
<path d="M1.75 13.25C2.44036 13.25 3 12.6904 3 12C3 11.3096 2.44036 10.75 1.75 10.75C1.05964 10.75 0.5 11.3096 0.5 12C0.5 12.6904 1.05964 13.25 1.75 13.25Z" />
<path d="M6 4.75C6 5.44036 5.44036 6 4.75 6C4.05964 6 3.5 5.44036 3.5 4.75C3.5 4.05964 4.05964 3.5 4.75 3.5C5.44036 3.5 6 4.05964 6 4.75Z" />
<path fill-rule="evenodd" clip-rule="evenodd" d="M4.5 12C4.5 7.85786 7.85786 4.5 12 4.5C16.1421 4.5 19.5 7.85786 19.5 12C19.5 16.1421 16.1421 19.5 12 19.5C7.85786 19.5 4.5 16.1421 4.5 12ZM10.2955 9.95455C10.2955 9.57799 9.99019 9.27273 9.61364 9.27273C9.23708 9.27273 8.93182 9.57799 8.93182 9.95455V10.2955C8.93182 10.672 9.23708 10.9773 9.61364 10.9773C9.99019 10.9773 10.2955 10.672 10.2955 10.2955V9.95455ZM15.0682 9.95455C15.0682 9.57799 14.7629 9.27273 14.3864 9.27273C14.0098 9.27273 13.7045 9.57799 13.7045 9.95455V10.2955C13.7045 10.672 14.0098 10.9773 14.3864 10.9773C14.7629 10.9773 15.0682 10.672 15.0682 10.2955V9.95455ZM10.2207 14.076C10.0506 13.7432 9.64369 13.609 9.3087 13.7765C8.9719 13.9449 8.83538 14.3545 9.00378 14.6913L9.00584 14.6902L9.00608 14.6907C9.00404 14.6918 9.00409 14.6919 9.00409 14.6919L9.00441 14.6925L9.00511 14.6939L9.00671 14.6971L9.01075 14.7049C9.01381 14.7108 9.01761 14.718 9.02218 14.7264C9.0313 14.7432 9.04348 14.765 9.05883 14.7911C9.08949 14.8431 9.13305 14.9125 9.19041 14.9935C9.3046 15.1547 9.47671 15.3663 9.71462 15.5778C10.1962 16.0058 10.9481 16.4318 12 16.4318C13.0519 16.4318 13.8038 16.0058 14.2853 15.5778C14.5233 15.3663 14.6954 15.1547 14.8096 14.9935C14.8669 14.9125 14.9105 14.8431 14.9411 14.7911C14.9565 14.765 14.9687 14.7432 14.9778 14.7264L14.9808 14.7208C14.9984 14.6911 15.0131 14.6596 15.0245 14.6265C15.1465 14.3036 15.0068 13.9343 14.6913 13.7765C14.3563 13.609 13.9493 13.7432 13.7793 14.076L13.7788 14.0769L13.775 14.0837C13.7729 14.0875 13.77 14.0926 13.7663 14.0988C13.753 14.1213 13.73 14.1584 13.6968 14.2053C13.6299 14.2998 13.525 14.4291 13.3794 14.5586C13.0939 14.8123 12.6526 15.0682 12 15.0682C11.3473 15.0682 10.9061 14.8123 10.6206 14.5586C10.475 14.4291 10.3701 14.2998 10.3032 14.2053C10.27 14.1584 10.247 14.1213 10.2337 14.0988C10.227 14.0875 10.2229 14.0801 10.2212 14.0769L10.2207 14.076Z" />
</svg>
