<svg width="24" height="24" viewBox="0 0 24 24" fill="currentColor"  xmlns="http://www.w3.org/2000/svg">
<path fill-rule="evenodd" clip-rule="evenodd" d="M3.00004 2.98707L3 3V21C3 22.1046 3.89543 23 5 23H19C20.1046 23 21 22.1046 21 21V3C21 1.89543 20.1046 1 19 1H5C3.89974 1 3.007 1.88845 3.00004 2.98707ZM5 8V21H13.903L15.4565 19.389L14.4069 18.3004C13.7108 18.7419 12.8853 18.9976 12 18.9976C9.51472 18.9976 7.5 16.9828 7.5 14.4976C7.5 13.6864 7.71461 12.9254 8.09014 12.2682L6.27973 10.2139C5.93537 9.82317 5.94859 9.23353 6.31013 8.85861L7.13811 8H5ZM9.45162 10.7882C10.1761 10.2895 11.054 9.99756 12 9.99756C14.4853 9.99756 16.5 12.0123 16.5 14.4976C16.5 15.3732 16.2499 16.1904 15.8172 16.8817L17.5656 18.6949C17.9391 19.0822 17.9391 19.6958 17.5656 20.0831L16.6814 21H19V8H9.91653L8.38976 9.58326L9.45162 10.7882ZM7 5.5C7.55228 5.5 8 5.05228 8 4.5C8 3.94772 7.55228 3.5 7 3.5C6.44772 3.5 6 3.94772 6 4.5C6 5.05228 6.44772 5.5 7 5.5ZM11 4.5C11 5.05228 10.5523 5.5 10 5.5C9.44772 5.5 9 5.05228 9 4.5C9 3.94772 9.44772 3.5 10 3.5C10.5523 3.5 11 3.94772 11 4.5ZM9.5 14.4976C9.5 13.1168 10.6193 11.9976 12 11.9976C13.3807 11.9976 14.5 13.1168 14.5 14.4976C14.5 15.8783 13.3807 16.9976 12 16.9976C10.6193 16.9976 9.5 15.8783 9.5 14.4976Z" />
</svg>
