<svg width="24" height="24" viewBox="0 0 24 24" fill="currentColor"  xmlns="http://www.w3.org/2000/svg">
<path fill-rule="evenodd" clip-rule="evenodd" d="M20.9996 1.93562C20.9596 1.44969 20.575 1.06372 20.0893 1.0216L20.0887 1.02123L20.0866 1.02105C20.0109 1.00565 19.9326 0.997559 19.8524 0.997559C19.8145 0.997559 19.7769 0.999369 19.7399 1.00291C19.6221 0.999202 19.4772 0.996723 19.3098 0.99782C18.8471 1.00085 18.2044 1.03126 17.4798 1.14146C16.0575 1.3578 14.1836 1.9022 12.7929 3.2929C12.6908 3.39502 12.5932 3.49978 12.5 3.60678V2C12.5 1.44772 12.0523 1 11.5 1C10.9477 1 10.5 1.44772 10.5 2V9.59776C9.32521 8.551 7.79941 8.17667 6.65165 8.04348C6.02717 7.97102 5.47208 7.96507 5.0725 7.97701C4.8719 7.983 4.70833 7.99356 4.59225 8.00295C4.53415 8.00764 4.48777 8.01206 4.45442 8.01548C4.43774 8.0172 4.4243 8.01866 4.41427 8.0198L4.40178 8.02123L4.39748 8.02174L4.39513 8.02203C4.39513 8.02203 4.39506 8.02204 4.39894 8.05442L4.3945 8.02211C3.93903 8.07792 3.58 8.43656 3.52369 8.89197L3.60753 8.90234C3.52369 8.89211 3.52361 8.89259 3.52361 8.89259L3.52332 8.89495L3.52281 8.89925L3.52136 8.91175C3.52021 8.9218 3.51873 8.93525 3.51699 8.95195C3.51353 8.98533 3.50906 9.03176 3.50429 9.08992C3.49477 9.20614 3.48402 9.36989 3.47783 9.57071C3.46548 9.97069 3.4709 10.5264 3.54295 11.1513C3.68327 12.3685 4.09473 14.0109 5.29346 15.2079C6.49131 16.4039 8.13266 16.8159 9.34929 16.957C9.77397 17.0062 10.1666 17.0248 10.5 17.0278V22C10.5 22.5523 10.9477 23 11.5 23C12.0523 23 12.5 22.5523 12.5 22V15.8768C12.5088 15.7634 12.5181 15.6116 12.5236 15.4293C12.5328 15.1283 12.5319 14.739 12.5 14.2984V11.5243C12.9249 11.5086 13.4545 11.4678 14.0374 11.375C15.4545 11.1493 17.3193 10.5949 18.7071 9.20711C20.0959 7.81837 20.6462 5.95222 20.8681 4.53474C20.9811 3.8129 21.0143 3.17285 21.0194 2.71202C21.0214 2.53714 21.0193 2.38696 21.0158 2.2666C21.0187 2.23322 21.0202 2.19944 21.0202 2.16531C21.0202 2.09281 21.0135 2.02184 21.0009 1.95299L21.0002 1.94342L20.9998 1.93876L20.9996 1.93626C20.9996 1.93622 20.9996 1.93618 20.9977 1.9363L20.9976 1.93578L20.9996 1.93562ZM17.7805 3.11872C16.5372 3.30784 15.1596 3.75466 14.2071 4.70711C13.3418 5.57245 12.8936 6.79195 12.6771 7.9438L14.7929 5.82799C15.1834 5.43747 15.8166 5.43747 16.2071 5.82799C16.5977 6.21852 16.5977 6.85168 16.2071 7.24221L14.1213 9.32807C15.2487 9.1005 16.439 8.64681 17.2929 7.79289C18.2473 6.83848 18.6984 5.4634 18.8922 4.22544C18.9636 3.76925 18.9972 3.34972 19.0113 3.00443C18.6636 3.01691 18.2405 3.04876 17.7805 3.11872ZM6.42111 10.0302C6.07258 9.98971 5.7482 9.9747 5.47288 9.97247C5.47482 10.2482 5.48955 10.5732 5.52979 10.9223C5.65029 11.9675 5.98078 13.0678 6.70662 13.7926C7.29002 14.3751 8.11496 14.7033 8.95832 14.8727L7.29293 13.2073C6.90241 12.8168 6.90241 12.1836 7.29293 11.7931C7.68345 11.4026 8.31662 11.4026 8.70714 11.7931L10.3744 13.4604C10.2053 12.616 9.87703 11.7906 9.29345 11.2079C8.5667 10.4822 7.46561 10.1514 6.42111 10.0302Z" />
</svg>
