<svg width="24" height="24" viewBox="0 0 24 24" fill="currentColor"  xmlns="http://www.w3.org/2000/svg">
<path fill-rule="evenodd" clip-rule="evenodd" d="M1 12C1 5.92487 5.92487 1 12 1C18.0751 1 23 5.92487 23 12C23 18.0751 18.0751 23 12 23C5.92487 23 1 18.0751 1 12ZM8.5 8C9.05228 8 9.5 8.44771 9.5 9V9.5C9.5 10.0523 9.05228 10.5 8.5 10.5C7.94771 10.5 7.5 10.0523 7.5 9.5V9C7.5 8.44771 7.94771 8 8.5 8ZM15.5 8C16.0523 8 16.5 8.44771 16.5 9V9.5C16.5 10.0523 16.0523 10.5 15.5 10.5C14.9477 10.5 14.5 10.0523 14.5 9.5V9C14.5 8.44771 14.9477 8 15.5 8ZM9.5096 14.6285C10.1694 14.2572 11.0009 14 12 14C13.0004 14 13.8294 14.2563 14.4902 14.6289C14.9713 14.9002 15.1414 15.51 14.8702 15.9911C14.5989 16.4722 13.989 16.6423 13.508 16.3711C13.1374 16.1622 12.6455 16 12 16C11.3562 16 10.8612 16.1629 10.4904 16.3715C10.0091 16.6423 9.39934 16.4717 9.1285 15.9904C8.85766 15.5091 9.02828 14.8993 9.5096 14.6285Z" />
</svg>
