<svg width="24" height="24" viewBox="0 0 24 24" fill="currentColor"  xmlns="http://www.w3.org/2000/svg">
<path d="M9.00005 1C8.83011 1 8.66296 1.04331 8.51441 1.12584L4.01441 3.62584C3.7772 3.75762 3.60373 3.98015 3.53382 4.24234L1.53382 11.7423C1.42868 12.1366 1.57362 12.5552 1.90005 12.8L5.50005 15.5V22C5.50005 22.5523 5.94777 23 6.50005 23H17.5C18.0523 23 18.5 22.5523 18.5 22V15.5L22.1 12.8C22.4265 12.5552 22.5714 12.1366 22.4663 11.7423L20.4663 4.24234C20.3964 3.98015 20.2229 3.75762 19.9857 3.62584L15.4857 1.12584C15.3371 1.04331 15.17 1 15 1H9.00005Z" />
</svg>
