<svg width="24" height="24" viewBox="0 0 24 24" fill="currentColor"  xmlns="http://www.w3.org/2000/svg">
<path fill-rule="evenodd" clip-rule="evenodd" d="M1 12C1 5.92487 5.92487 1 12 1C18.0751 1 23 5.92487 23 12C23 18.0751 18.0751 23 12 23C5.92487 23 1 18.0751 1 12ZM10.99 8.35858C11.0681 8.90532 10.6882 9.41185 10.1414 9.48995L8.5 9.72444V13.5C8.5 14.0523 8.05229 14.5 7.5 14.5C6.94772 14.5 6.5 14.0523 6.5 13.5V10.0001C6.00986 10.0007 5.58137 9.64063 5.51006 9.14143C5.43195 8.59469 5.81185 8.08816 6.35858 8.01006L9.85858 7.51006C10.4053 7.43195 10.9118 7.81185 10.99 8.35858ZM17.5 10.0001C17.9902 10.0007 18.4186 9.64063 18.49 9.14143C18.5681 8.59469 18.1882 8.08816 17.6414 8.01006L14.1414 7.51006C13.5947 7.43195 13.0882 7.81185 13.0101 8.35858C12.932 8.90532 13.3118 9.41185 13.8586 9.48995L15.5 9.72444V13.5C15.5 14.0523 15.9477 14.5 16.5 14.5C17.0523 14.5 17.5 14.0523 17.5 13.5V10.0001ZM12 14.5C10.4572 14.5 9.3544 15.1248 8.64811 15.7526C8.29917 16.0628 8.04674 16.373 7.87926 16.6095C7.79513 16.7282 7.73124 16.8301 7.68628 16.9064C7.66377 16.9446 7.6459 16.9766 7.63252 17.0013C7.62582 17.0136 7.62024 17.0242 7.61576 17.0328L7.60984 17.0443L7.60749 17.0489L7.60647 17.0509L7.60599 17.0519L7.60585 17.0525L7.6057 17.0531C7.35871 17.547 7.55878 18.1474 8.05276 18.3944C8.54407 18.6401 9.14092 18.4433 9.39037 17.9552L9.3911 17.9538C9.39359 17.9492 9.39965 17.9382 9.40936 17.9218C9.42886 17.8887 9.46262 17.8343 9.51131 17.7655C9.60945 17.627 9.76327 17.4372 9.97683 17.2474C10.3955 16.8752 11.0428 16.5 12 16.5C12.9572 16.5 13.6044 16.8752 14.0231 17.2474C14.2367 17.4372 14.3905 17.627 14.4886 17.7655C14.5373 17.8343 14.5711 17.8887 14.5906 17.9218C14.6003 17.9382 14.6063 17.9492 14.6088 17.9538L14.6096 17.9552C14.859 18.4433 15.4559 18.6401 15.9472 18.3944C16.4412 18.1474 16.6414 17.5468 16.3944 17.0528C16.3901 17.0443 16.3946 17.0532 16.3939 17.0519L16.3925 17.0489L16.3901 17.0443L16.3842 17.0328C16.3797 17.0242 16.3741 17.0136 16.3674 17.0013C16.354 16.9766 16.3362 16.9446 16.3137 16.9064C16.2687 16.8301 16.2048 16.7282 16.1207 16.6095C15.9532 16.373 15.7008 16.0628 15.3518 15.7526C14.6455 15.1248 13.5428 14.5 12 14.5Z" />
</svg>
