<svg width="24" height="24" viewBox="0 0 24 24" fill="currentColor"  xmlns="http://www.w3.org/2000/svg">
<path fill-rule="evenodd" clip-rule="evenodd" d="M1 4C1 2.34315 2.34315 1 4 1H20C21.6569 1 23 2.34315 23 4V20C23 21.6569 21.6569 23 20 23H4C2.34315 23 1 21.6569 1 20V4ZM6 5.44186C6.30825 5.44186 6.55814 5.69175 6.55814 6V10C6.55814 10.3083 6.30825 10.5581 6 10.5581C5.69175 10.5581 5.44186 10.3083 5.44186 10V6C5.44186 5.69175 5.69175 5.44186 6 5.44186ZM14 13.4419C14.3083 13.4419 14.5581 13.6917 14.5581 14V18C14.5581 18.3083 14.3083 18.5581 14 18.5581C13.6917 18.5581 13.4419 18.3083 13.4419 18V14C13.4419 13.6917 13.6917 13.4419 14 13.4419ZM10.5581 6C10.5581 5.69175 10.3083 5.44186 10 5.44186C9.69175 5.44186 9.44186 5.69175 9.44186 6V10C9.44186 10.3083 9.69175 10.5581 10 10.5581C10.3083 10.5581 10.5581 10.3083 10.5581 10V6ZM13.4419 6C13.4419 5.69175 13.6917 5.44186 14 5.44186H18C18.3083 5.44186 18.5581 5.69175 18.5581 6C18.5581 6.30825 18.3083 6.55814 18 6.55814H14C13.6917 6.55814 13.4419 6.30825 13.4419 6ZM6 13.4419C5.69175 13.4419 5.44186 13.6917 5.44186 14C5.44186 14.3083 5.69175 14.5581 6 14.5581H10C10.3083 14.5581 10.5581 14.3083 10.5581 14C10.5581 13.6917 10.3083 13.4419 10 13.4419H6ZM13.4419 10C13.4419 9.69175 13.6917 9.44186 14 9.44186H18C18.3083 9.44186 18.5581 9.69175 18.5581 10C18.5581 10.3083 18.3083 10.5581 18 10.5581H14C13.6917 10.5581 13.4419 10.3083 13.4419 10ZM6 17.4419C5.69175 17.4419 5.44186 17.6917 5.44186 18C5.44186 18.3083 5.69175 18.5581 6 18.5581H10C10.3083 18.5581 10.5581 18.3083 10.5581 18C10.5581 17.6917 10.3083 17.4419 10 17.4419H6ZM18 13.4419C18.3083 13.4419 18.5581 13.6917 18.5581 14V18C18.5581 18.3083 18.3083 18.5581 18 18.5581C17.6917 18.5581 17.4419 18.3083 17.4419 18V14C17.4419 13.6917 17.6917 13.4419 18 13.4419Z" />
</svg>
