<svg width="24" height="24" viewBox="0 0 24 24" fill="none" xmlns="http://www.w3.org/2000/svg">
<path fill-rule="evenodd" clip-rule="evenodd" d="M19.0131 4.98689C20.6163 6.59007 21.6139 8.68557 21.8589 10.918H20.9512C20.8281 9.90002 20.5321 8.9089 20.0745 7.98788C19.5249 6.88167 18.7538 5.90019 17.8091 5.10434L17.1114 5.93255C17.9426 6.63281 18.6211 7.4964 19.1047 8.46975C19.4879 9.24091 19.7423 10.0679 19.8593 10.918H13.3285C13.2123 10.2901 12.6618 9.8145 12.0003 9.8145C11.6362 9.8145 11.3058 9.95854 11.0628 10.1927L7.45244 8.91281C7.39278 8.89163 7.30763 8.97074 7.2613 9.0904C7.21498 9.21006 7.22468 9.32584 7.28303 9.3504L10.7028 10.7883C10.6904 10.8307 10.6802 10.874 10.672 10.918L4.14059 10.918C4.25832 10.0627 4.5151 9.2309 4.9021 8.45585C5.38764 7.48345 6.0678 6.62118 6.9004 5.92255L6.20431 5.09298C5.25806 5.88698 4.48505 6.86694 3.93324 7.97208C3.47117 8.89747 3.17245 9.89411 3.04869 10.918H2.14113C2.38607 8.68556 3.38372 6.59006 4.98689 4.98689C6.84688 3.1269 9.36958 2.08197 12 2.08197C14.6304 2.08197 17.1531 3.1269 19.0131 4.98689ZM19.7782 4.22183C21.5845 6.02812 22.6977 8.39792 22.9467 10.918C22.9821 11.276 23 11.6371 23 12H21.918H12L2.08197 12H1C1 11.6371 1.01793 11.276 1.05331 10.918C1.30231 8.39792 2.41553 6.02812 4.22183 4.22182C6.28473 2.15892 9.08262 1 12 1C14.9174 1 17.7153 2.15893 19.7782 4.22183ZM12.0157 2.98356C13.7266 2.98655 15.4014 3.47629 16.8444 4.39559L16.2626 5.30892C14.9929 4.50003 13.5193 4.06911 12.0138 4.06648C10.5083 4.06385 9.03319 4.48963 7.76067 5.29408L7.18201 4.37872C8.62822 3.46447 10.3047 2.98057 12.0157 2.98356Z" fill="white"/>
</svg>
