<svg width="24" height="24" viewBox="0 0 24 24" fill="currentColor"  xmlns="http://www.w3.org/2000/svg">
<path fill-rule="evenodd" clip-rule="evenodd" d="M8.49986 5.5C8.49986 3.84315 9.843 2.5 11.4999 2.5C13.1567 2.5 14.4999 3.84315 14.4999 5.5V6.0282C15.436 6.36981 16.2998 6.86665 17.0631 7.48779C17.6927 6.87687 18.5518 6.5 19.4998 6.5C21.4328 6.5 22.9998 8.067 22.9998 10C22.9998 11.6229 21.8953 12.9878 20.397 13.3839C20.4651 13.8449 20.5003 14.3166 20.5003 14.7963C20.5003 16.6039 20.0001 18.2947 19.1324 19.7254C19.3567 19.9088 19.4999 20.1877 19.4999 20.5C19.4999 21.0523 19.0521 21.5 18.4999 21.5H4.49986C3.94757 21.5 3.49986 21.0523 3.49986 20.5C3.49986 20.1874 3.6433 19.9083 3.86796 19.7249C3.00049 18.2943 2.50035 16.6037 2.50035 14.7963C2.50035 14.7701 2.50045 14.7439 2.50066 14.7178C2.49168 14.7132 2.48266 14.7085 2.47362 14.7037C1.97978 14.4431 1.43338 13.9669 1.08075 13.1441C0.569157 11.9505 0.755549 10.9692 1.11204 10.1375C1.24478 9.82779 1.41014 9.51921 1.55328 9.2521C1.5846 9.19366 1.61491 9.1371 1.64353 9.08305C1.81455 8.76001 1.95373 8.47664 2.0513 8.18394C2.14275 7.90962 2.10138 7.68506 1.99774 7.47433C1.883 7.24101 1.69709 7.04446 1.55356 6.91965C1.24919 6.65498 1.00021 6.23864 1.00008 5.73298L0.999998 5.42414C0.99981 4.71031 1.53625 3.99515 2.38445 3.964C2.9574 3.94296 4.14552 3.98445 5.09994 4.70014C5.49749 4.99826 5.79605 5.40335 6.01661 5.7755C6.24268 6.15694 6.42221 6.56473 6.55962 6.92543C6.56971 6.95189 6.5796 6.9782 6.5893 7.00434C7.181 6.6054 7.82141 6.27621 8.49986 6.02855V5.5ZM19.898 11.4466C20.5332 11.2721 20.9998 10.6906 20.9998 10C20.9998 9.17157 20.3283 8.5 19.4998 8.5C19.1006 8.5 18.7368 8.65606 18.4674 8.91165C19.0666 9.66788 19.5521 10.5224 19.898 11.4466ZM16.388 9.57279C16.4437 9.65265 16.5114 9.72493 16.59 9.78656C17.0497 10.2935 17.4409 10.8698 17.7474 11.5H5.25325C6.41405 9.1135 8.78918 7.5 11.5003 7.5C13.3929 7.5 15.1217 8.28623 16.388 9.57279ZM4.94821 8.4236L4.94362 8.40717C4.88687 8.20502 4.80221 7.93025 4.69067 7.63746C4.57807 7.34191 4.44506 7.04657 4.29608 6.7952C4.1416 6.53454 4.0026 6.37713 3.90007 6.30024C3.78011 6.21029 3.63924 6.1419 3.48812 6.09092C3.93382 6.7071 4.33753 7.64986 3.94866 8.81642C3.79623 9.27371 3.59164 9.67783 3.41108 10.0189C3.37208 10.0925 3.33485 10.1622 3.29928 10.2287C3.15961 10.4899 3.04552 10.7032 2.9503 10.9254C2.76452 11.3588 2.6945 11.7216 2.85725 12.1965C3.2587 10.7703 3.9842 9.48123 4.94821 8.4236ZM12.4999 5.5V5.55654C12.1719 5.51919 11.8384 5.5 11.5003 5.5C11.162 5.5 10.8282 5.51923 10.4999 5.55665V5.5C10.4999 4.94772 10.9476 4.5 11.4999 4.5C12.0521 4.5 12.4999 4.94772 12.4999 5.5Z" />
</svg>
