<svg width="24" height="24" viewBox="0 0 24 24" fill="none" xmlns="http://www.w3.org/2000/svg">
<path fill-rule="evenodd" clip-rule="evenodd" d="M11.4106 1.19742C11.4081 1.194 11.4081 1.19401 11.4081 1.19401L11.4053 1.19601L11.3993 1.20046L11.3793 1.21537C11.3625 1.22798 11.3387 1.2459 11.3085 1.26902C11.248 1.31524 11.1616 1.38227 11.053 1.46913C10.836 1.64278 10.5296 1.89611 10.1638 2.22134C9.4333 2.87064 8.45867 3.81255 7.48178 4.98482C5.54985 7.30313 3.5 10.6534 3.5 14.5C3.5 14.7934 3.51487 15.0833 3.54388 15.3691C3.97917 19.6553 7.59897 23 12 23C16.6944 23 20.5 19.1944 20.5 14.5C20.5 10.6534 18.4501 7.30313 16.5182 4.98482C15.5413 3.81255 14.5667 2.87064 13.8362 2.22134C13.4704 1.89611 13.164 1.64278 12.947 1.46913C12.8384 1.38227 12.752 1.31524 12.6915 1.26902C12.6613 1.2459 12.6375 1.22798 12.6207 1.21537L12.6007 1.20046L12.5947 1.19601L12.5927 1.19455C12.5927 1.19455 12.5919 1.194 12.5894 1.19736L12.5914 1.1936C12.4311 1.07608 12.2446 1.01206 12.0557 1.00155C12.0404 1.0007 12.0251 1.0002 12.0097 1.00005C12.0065 1.00002 12.0033 1 12.0001 1C11.9871 0.999999 11.9741 1.00025 11.9611 1.00076C11.7665 1.00832 11.5731 1.07301 11.4081 1.19401L11.4106 1.19742ZM14.9818 6.26518C16.6548 8.27286 18.228 10.8886 18.4684 13.7505C18.0314 13.8585 17.4313 13.9852 16.751 14.0702C15.3104 14.2503 13.6784 14.2212 12.4472 13.6056C10.6784 12.7212 8.56036 12.7503 7.00097 12.9452C6.48067 13.0103 6.00375 13.0963 5.59694 13.1827C5.98171 10.5433 7.45646 8.1393 9.01822 6.26518C9.91633 5.18745 10.8167 4.31686 11.4925 3.71616C11.6814 3.54819 11.8523 3.40181 12 3.27838C12.1477 3.40181 12.3186 3.54819 12.5075 3.71616C13.1833 4.31686 14.0837 5.18745 14.9818 6.26518Z" fill="white"/>
</svg>
