<svg width="24" height="24" viewBox="0 0 24 24" fill="currentColor"  xmlns="http://www.w3.org/2000/svg">
<path fill-rule="evenodd" clip-rule="evenodd" d="M2.4716 16.5004C2.65017 16.1908 2.98041 16 3.33783 16H7.50001C8.05229 16 8.50001 16.4477 8.50001 17C8.50001 17.5523 8.05229 18 7.50001 18H5.29152C6.94032 19.8423 9.33536 21 12 21C14.0274 21 15.8964 20.3308 17.4015 19.2064C17.844 18.8758 18.4706 18.9666 18.8011 19.409C19.1317 19.8514 19.041 20.4781 18.5985 20.8086C16.761 22.1814 14.475 23 12 23C7.92721 23 4.37265 20.786 2.47222 17.5007C2.29326 17.1913 2.29302 16.81 2.4716 16.5004Z" />
<path fill-rule="evenodd" clip-rule="evenodd" d="M15.0836 2.43172C15.3048 1.92563 15.8943 1.69462 16.4004 1.91574C20.2833 3.61225 23 7.48774 23 12C23 14.0019 22.4643 15.8818 21.5278 17.5007C21.349 17.8098 21.0189 18.0001 20.6618 18C20.3047 17.9999 19.9748 17.8093 19.7962 17.5001L17.775 14.0001C17.4988 13.5218 17.6626 12.9102 18.1409 12.634C18.6192 12.3578 19.2308 12.5217 19.507 12.9999L20.5527 14.8108C20.8429 13.927 21 12.9824 21 12C21 8.31098 18.7803 5.13816 15.5996 3.74844C15.0935 3.52732 14.8625 2.93781 15.0836 2.43172Z" />
<path fill-rule="evenodd" clip-rule="evenodd" d="M10.1589 3.18847C6.07138 4.03815 3 7.66039 3 12C3 12.3045 3.01508 12.6051 3.04448 12.9012C3.09905 13.4508 2.69776 13.9405 2.14817 13.9951C1.59859 14.0497 1.10883 13.6484 1.05427 13.0988C1.01836 12.7371 1 12.3705 1 12C1 5.92487 5.92487 1 12 1C12.3573 1 12.6874 1.19062 12.866 1.50004C13.0447 1.80946 13.0446 2.19068 12.866 2.50008L10.8448 6.00008C10.5686 6.47835 9.95704 6.64217 9.47877 6.36598C9.0005 6.08979 8.83668 5.47819 9.11287 4.99992L10.1589 3.18847Z" />
<path fill-rule="evenodd" clip-rule="evenodd" d="M8 12C8 9.79086 9.79086 8 12 8C14.2091 8 16 9.79086 16 12C16 14.2091 14.2091 16 12 16C9.79086 16 8 14.2091 8 12Z" />
</svg>
