<svg width="24" height="24" viewBox="0 0 24 24" fill="currentColor"  xmlns="http://www.w3.org/2000/svg">
<path d="M10.5 1C9.94771 1 9.5 1.44772 9.5 2C9.5 2.55228 9.94771 3 10.5 3H13.5C14.0523 3 14.5 2.55228 14.5 2C14.5 1.44772 14.0523 1 13.5 1H10.5Z" />
<path fill-rule="evenodd" clip-rule="evenodd" d="M2 12H4V22C4 22.5523 4.44772 23 5 23H19C19.5523 23 20 22.5523 20 22V12H22C22.5523 12 23 11.5523 23 11C23 10.4477 22.5523 10 22 10H19.9798C19.6767 6.46168 15.9992 4 12 4C8.00085 4 4.32333 6.46168 4.02016 10H2C1.44772 10 1 10.4477 1 11C1 11.5523 1.44772 12 2 12ZM6 12.0203V21H18V12.0217L6 12.0203Z" />
</svg>
