<svg width="24" height="24" viewBox="0 0 24 24" fill="currentColor"  xmlns="http://www.w3.org/2000/svg">
<path d="M15 7C15 6.44772 15.4477 6 16 6H18C18.5523 6 19 6.44772 19 7C19 7.55228 18.5523 8 18 8H16C15.4477 8 15 7.55228 15 7Z" />
<path fill-rule="evenodd" clip-rule="evenodd" d="M3 3C1.89543 3 1 3.89543 1 5V13C1 14.1046 1.89543 15 3 15H21C22.1046 15 23 14.1046 23 13V5C23 3.89543 22.1046 3 21 3H3ZM19 13H21V5L3 5V13H5V10C5 9.44772 5.44771 9 6 9H18C18.5523 9 19 9.44772 19 10V13Z" />
<path d="M13 17C13 16.4477 12.5523 16 12 16C11.4477 16 11 16.4477 11 17V20C11 20.5523 11.4477 21 12 21C12.5523 21 13 20.5523 13 20V17Z" />
<path d="M8 17C8.55228 17 9 17.4477 9 18V19C9 19.5523 8.55228 20 8 20C7.44771 20 7 19.5523 7 19V18C7 17.4477 7.44771 17 8 17Z" />
<path d="M17 18C17 17.4477 16.5523 17 16 17C15.4477 17 15 17.4477 15 18V19C15 19.5523 15.4477 20 16 20C16.5523 20 17 19.5523 17 19V18Z" />
</svg>
