<svg width="24" height="24" viewBox="0 0 24 24" fill="currentColor"  xmlns="http://www.w3.org/2000/svg">
<path d="M2 12.2308C2 6.60449 6.45344 2 12 2C17.5466 2 22 6.60449 22 12.2308V16C22.5523 16 23 16.4477 23 17V18C23 18.5523 22.5523 19 22 19V21C22 21.5523 21.5523 22 21 22H19C17.3431 22 16 20.6569 16 19V16C16 14.3431 17.3431 13 19 13H20V12.2308C20 7.66102 16.3946 4 12 4C7.60544 4 4 7.66102 4 12.2308V13H5C6.65685 13 8 14.3431 8 16V19C8 20.6569 6.65685 22 5 22H3C2.44772 22 2 21.5523 2 21V19C1.44772 19 1 18.5523 1 18V17C1 16.4477 1.44772 16 2 16V12.2308Z" />
</svg>
