<svg width="24" height="24" viewBox="0 0 24 24" fill="currentColor"  xmlns="http://www.w3.org/2000/svg">
<path fill-rule="evenodd" clip-rule="evenodd" d="M4.5 12C4.5 7.85786 7.85786 4.5 12 4.5C16.1421 4.5 19.5 7.85786 19.5 12C19.5 16.1421 16.1421 19.5 12 19.5C7.85786 19.5 4.5 16.1421 4.5 12ZM8.32196 9.64961C8.49037 9.31281 8.89992 9.17629 9.23672 9.34469L10.6004 10.0265C10.9372 10.1949 11.0737 10.6045 10.9053 10.9413C10.7369 11.2781 10.3273 11.4146 9.99052 11.2462L8.62688 10.5644C8.29008 10.396 8.15356 9.98641 8.32196 9.64961ZM15.3731 10.5644C15.7099 10.396 15.8464 9.98641 15.678 9.64961C15.5096 9.31281 15.1 9.17629 14.7632 9.34469L13.3996 10.0265C13.0628 10.1949 12.9263 10.6045 13.0947 10.9413C13.2631 11.2781 13.6726 11.4146 14.0094 11.2462L15.3731 10.5644ZM12 13.0227C10.9481 13.0227 10.1962 13.4487 9.71462 13.8767C9.47671 14.0882 9.3046 14.2998 9.19041 14.461C9.13305 14.542 9.08949 14.6114 9.05883 14.6634C9.04348 14.6895 9.0313 14.7113 9.02218 14.7281C9.0161 14.7393 9.01022 14.7506 9.00441 14.762L9.00409 14.7626C9.00368 14.7635 9.00441 14.762 9.00378 14.7632C8.8981 14.9746 8.9094 15.2256 9.03363 15.4266C9.15786 15.6276 9.37732 15.75 9.61362 15.75H12H14.3863C14.6227 15.75 14.8421 15.6276 14.9663 15.4266C15.0906 15.2256 15.1019 14.9746 14.9962 14.7632C14.9959 14.7626 14.9959 14.7626 14.9959 14.7626L14.9892 14.7496C14.9862 14.7437 14.9824 14.7365 14.9778 14.7281C14.9687 14.7113 14.9565 14.6895 14.9411 14.6634C14.9105 14.6114 14.8669 14.542 14.8096 14.461C14.6954 14.2998 14.5233 14.0882 14.2853 13.8767C13.8038 13.4487 13.0519 13.0227 12 13.0227Z" />
<path d="M13.25 1.75C13.25 2.44036 12.6904 3 12 3C11.3096 3 10.75 2.44036 10.75 1.75C10.75 1.05964 11.3096 0.5 12 0.5C12.6904 0.5 13.25 1.05964 13.25 1.75Z" />
<path d="M20.5 4.75C20.5 5.44036 19.9404 6 19.25 6C18.5596 6 18 5.44036 18 4.75C18 4.05964 18.5596 3.5 19.25 3.5C19.9404 3.5 20.5 4.05964 20.5 4.75Z" />
<path d="M22.25 13.25C22.9404 13.25 23.5 12.6904 23.5 12C23.5 11.3096 22.9404 10.75 22.25 10.75C21.5596 10.75 21 11.3096 21 12C21 12.6904 21.5596 13.25 22.25 13.25Z" />
<path d="M20.5 19.25C20.5 19.9404 19.9404 20.5 19.25 20.5C18.5596 20.5 18 19.9404 18 19.25C18 18.5596 18.5596 18 19.25 18C19.9404 18 20.5 18.5596 20.5 19.25Z" />
<path d="M12 23.5C12.6904 23.5 13.25 22.9404 13.25 22.25C13.25 21.5596 12.6904 21 12 21C11.3096 21 10.75 21.5596 10.75 22.25C10.75 22.9404 11.3096 23.5 12 23.5Z" />
<path d="M6 19.25C6 19.9404 5.44036 20.5 4.75 20.5C4.05964 20.5 3.5 19.9404 3.5 19.25C3.5 18.5596 4.05964 18 4.75 18C5.44036 18 6 18.5596 6 19.25Z" />
<path d="M1.75 13.25C2.44036 13.25 3 12.6904 3 12C3 11.3096 2.44036 10.75 1.75 10.75C1.05964 10.75 0.5 11.3096 0.5 12C0.5 12.6904 1.05964 13.25 1.75 13.25Z" />
<path d="M6 4.75C6 5.44036 5.44036 6 4.75 6C4.05964 6 3.5 5.44036 3.5 4.75C3.5 4.05964 4.05964 3.5 4.75 3.5C5.44036 3.5 6 4.05964 6 4.75Z" />
</svg>
