<svg width="24" height="24" viewBox="0 0 24 24" fill="currentColor"  xmlns="http://www.w3.org/2000/svg">
<path fill-rule="evenodd" clip-rule="evenodd" d="M1 12C1 5.92487 5.92487 1 12 1C18.0751 1 23 5.92487 23 12C23 18.0751 18.0751 23 12 23C5.92487 23 1 18.0751 1 12ZM9.5 9C9.5 8.44772 9.05228 8 8.5 8C7.94772 8 7.5 8.44772 7.5 9V9.5C7.5 10.0523 7.94772 10.5 8.5 10.5C9.05228 10.5 9.5 10.0523 9.5 9.5V9ZM16.5 9C16.5 8.44772 16.0523 8 15.5 8C14.9477 8 14.5 8.44772 14.5 9V9.5C14.5 10.0523 14.9477 10.5 15.5 10.5C16.0523 10.5 16.5 10.0523 16.5 9.5V9ZM9.39037 15.0448C9.14093 14.5566 8.54407 14.3599 8.05276 14.6055C7.55878 14.8525 7.35856 15.4532 7.60555 15.9472L7.60857 15.9457L7.60892 15.9464C7.60593 15.948 7.606 15.9481 7.606 15.9481L7.60647 15.949L7.6075 15.9511L7.60985 15.9557L7.61576 15.9672C7.62025 15.9758 7.62583 15.9864 7.63252 15.9987C7.64591 16.0234 7.66378 16.0554 7.68629 16.0936C7.73124 16.1699 7.79514 16.2717 7.87926 16.3905C8.04675 16.6269 8.29917 16.9372 8.64811 17.2474C9.3544 17.8752 10.4572 18.5 12 18.5C13.5428 18.5 14.6455 17.8752 15.3518 17.2474C15.7008 16.9372 15.9532 16.6269 16.1207 16.3905C16.2048 16.2717 16.2687 16.1699 16.3137 16.0936C16.3362 16.0554 16.354 16.0234 16.3674 15.9987L16.3719 15.9904C16.3977 15.947 16.4192 15.9007 16.436 15.8522C16.6149 15.3786 16.4099 14.8369 15.9472 14.6055C15.4559 14.3599 14.859 14.5566 14.6096 15.0448L14.6088 15.0462L14.6034 15.056C14.6002 15.0616 14.596 15.0691 14.5906 15.0782C14.5711 15.1113 14.5373 15.1657 14.4886 15.2345C14.3905 15.373 14.2367 15.5627 14.0231 15.7526C13.6044 16.1248 12.9572 16.5 12 16.5C11.0428 16.5 10.3955 16.1248 9.97684 15.7526C9.76328 15.5627 9.60946 15.373 9.51131 15.2345C9.46263 15.1657 9.42886 15.1113 9.40936 15.0782C9.39965 15.0617 9.3936 15.0507 9.39111 15.0462L9.39037 15.0448Z" />
</svg>
