<svg width="24" height="24" viewBox="0 0 24 24" fill="currentColor"  xmlns="http://www.w3.org/2000/svg">
<path d="M13.25 1.75C13.25 2.44036 12.6904 3 12 3C11.3096 3 10.75 2.44036 10.75 1.75C10.75 1.05964 11.3096 0.5 12 0.5C12.6904 0.5 13.25 1.05964 13.25 1.75Z" />
<path d="M20.5 4.75C20.5 5.44036 19.9404 6 19.25 6C18.5596 6 18 5.44036 18 4.75C18 4.05964 18.5596 3.5 19.25 3.5C19.9404 3.5 20.5 4.05964 20.5 4.75Z" />
<path d="M22.25 13.25C22.9404 13.25 23.5 12.6904 23.5 12C23.5 11.3096 22.9404 10.75 22.25 10.75C21.5596 10.75 21 11.3096 21 12C21 12.6904 21.5596 13.25 22.25 13.25Z" />
<path d="M20.5 19.25C20.5 19.9404 19.9404 20.5 19.25 20.5C18.5596 20.5 18 19.9404 18 19.25C18 18.5596 18.5596 18 19.25 18C19.9404 18 20.5 18.5596 20.5 19.25Z" />
<path d="M12 23.5C12.6904 23.5 13.25 22.9404 13.25 22.25C13.25 21.5596 12.6904 21 12 21C11.3096 21 10.75 21.5596 10.75 22.25C10.75 22.9404 11.3096 23.5 12 23.5Z" />
<path d="M6 19.25C6 19.9404 5.44036 20.5 4.75 20.5C4.05964 20.5 3.5 19.9404 3.5 19.25C3.5 18.5596 4.05964 18 4.75 18C5.44036 18 6 18.5596 6 19.25Z" />
<path d="M1.75 13.25C2.44036 13.25 3 12.6904 3 12C3 11.3096 2.44036 10.75 1.75 10.75C1.05964 10.75 0.5 11.3096 0.5 12C0.5 12.6904 1.05964 13.25 1.75 13.25Z" />
<path d="M6 4.75C6 5.44036 5.44036 6 4.75 6C4.05964 6 3.5 5.44036 3.5 4.75C3.5 4.05964 4.05964 3.5 4.75 3.5C5.44036 3.5 6 4.05964 6 4.75Z" />
<path fill-rule="evenodd" clip-rule="evenodd" d="M4.5 12C4.5 7.85786 7.85786 4.5 12 4.5C16.1421 4.5 19.5 7.85786 19.5 12C19.5 12.3242 19.4794 12.6435 19.4395 12.9569C18.9696 16.6471 15.8179 19.5 11.9999 19.5C8.00885 19.5 4.7459 16.3826 4.51318 12.45C4.50438 12.3011 4.5 12.1511 4.5 12ZM8.32196 9.64961C8.49037 9.31281 8.89992 9.17629 9.23672 9.34469L10.6004 10.0265C10.9372 10.1949 11.0737 10.6045 10.9053 10.9413C10.7369 11.2781 10.3273 11.4146 9.99052 11.2462L8.62688 10.5644C8.29008 10.396 8.15356 9.98641 8.32196 9.64961ZM15.3731 10.5644C15.7099 10.396 15.8464 9.98641 15.678 9.64961C15.5096 9.31281 15.1 9.17629 14.7632 9.34469L13.3996 10.0265C13.0628 10.1949 12.9263 10.6045 13.0947 10.9413C13.2631 11.2781 13.6726 11.4146 14.0094 11.2462L15.3731 10.5644ZM10.2206 14.076C10.0505 13.7431 9.64359 13.609 9.30861 13.7765C8.9718 13.9449 8.83529 14.3544 9.00369 14.6912L9.00599 14.6907C9.00395 14.6917 9.00432 14.6925 9.00432 14.6925L9.00502 14.6939L9.00662 14.697L9.01065 14.7049L9.02208 14.7264C9.03121 14.7432 9.04339 14.765 9.05874 14.7911C9.08939 14.8431 9.13295 14.9125 9.19031 14.9935C9.30451 15.1547 9.47661 15.3662 9.71453 15.5777C10.1961 16.0058 10.948 16.4318 11.9999 16.4318C13.0518 16.4318 13.8037 16.0058 14.2853 15.5777C14.5232 15.3662 14.6953 15.1547 14.8095 14.9935C14.8668 14.9125 14.9104 14.8431 14.941 14.7911C14.9564 14.765 14.9686 14.7432 14.9777 14.7264L14.9807 14.7207C14.9983 14.6911 15.013 14.6596 15.0244 14.6265C15.1464 14.3036 15.0067 13.9342 14.6912 13.7765C14.3562 13.609 13.9492 13.7431 13.7792 14.076L13.7787 14.0769L13.7749 14.0836L13.7662 14.0988C13.7529 14.1213 13.7299 14.1584 13.6967 14.2053C13.6298 14.2997 13.5249 14.4291 13.3793 14.5585C13.0938 14.8123 12.6525 15.0681 11.9999 15.0681C11.3472 15.0681 10.906 14.8123 10.6205 14.5585C10.4749 14.4291 10.37 14.2997 10.3031 14.2053C10.2699 14.1584 10.2469 14.1213 10.2336 14.0988C10.2269 14.0875 10.2228 14.08 10.2211 14.0769L10.2206 14.076Z" />
</svg>
