<svg width="24" height="24" viewBox="0 0 24 24" fill="currentColor"  xmlns="http://www.w3.org/2000/svg">
<path d="M13.5 7C13.5 6.72383 13.7238 6.5 14 6.5C14.2762 6.5 14.5 6.72383 14.5 7C14.5 7.27616 14.2762 7.5 14 7.5C13.7238 7.5 13.5 7.27616 13.5 7Z" />
<path d="M8 8.5C7.72383 8.5 7.5 8.72383 7.5 9C7.5 9.27616 7.72383 9.5 8 9.5C8.27616 9.5 8.5 9.27616 8.5 9C8.5 8.72383 8.27616 8.5 8 8.5Z" />
<path d="M8 15.5C8 15.2238 8.22383 15 8.5 15C8.77616 15 9 15.2238 9 15.5C9 15.7762 8.77616 16 8.5 16C8.22383 16 8 15.7762 8 15.5Z" />
<path fill-rule="evenodd" clip-rule="evenodd" d="M1 12C1 5.92486 5.92486 1 12 1C18.0751 1 23 5.92486 23 12C23 13.0949 22.3699 13.8065 21.6274 14.2367C20.9416 14.6341 20.0698 14.8521 19.2978 15.0192C19.0516 15.0725 18.8133 15.1211 18.582 15.1683C18.0286 15.2813 17.5158 15.3859 17.0325 15.5265C16.3393 15.7281 15.9419 15.9448 15.7485 16.1631C15.4627 16.4858 15.2793 16.9464 15.1598 17.5749C15.0746 18.0233 15.0347 18.4642 14.9915 18.9424C14.9715 19.1633 14.9509 19.3923 14.9246 19.6335C14.8511 20.3103 14.7287 21.1405 14.3181 21.8024C14.0977 22.1576 13.791 22.4727 13.3731 22.6915C12.9608 22.9073 12.4965 23 12 23C5.92486 23 1 18.0751 1 12ZM14 4.5C12.6193 4.5 11.5 5.61926 11.5 7C11.5 8.38073 12.6193 9.5 14 9.5C15.3807 9.5 16.5 8.38073 16.5 7C16.5 5.61926 15.3807 4.5 14 4.5ZM5.5 9C5.5 7.61926 6.61926 6.5 8 6.5C9.38073 6.5 10.5 7.61926 10.5 9C10.5 10.3807 9.38073 11.5 8 11.5C6.61926 11.5 5.5 10.3807 5.5 9ZM8.5 13C7.11926 13 6 14.1193 6 15.5C6 16.8807 7.11926 18 8.5 18C9.88073 18 11 16.8807 11 15.5C11 14.1193 9.88073 13 8.5 13Z" />
</svg>
