<svg width="24" height="24" viewBox="0 0 24 24" fill="currentColor"  xmlns="http://www.w3.org/2000/svg">
<path fill-rule="evenodd" clip-rule="evenodd" d="M12.5884 1.19752L12.0097 1C12.2142 1.00199 12.4181 1.0665 12.5914 1.19355L12.5927 1.1945L12.5947 1.19597L12.6007 1.20041L12.6207 1.21532C12.6375 1.22793 12.6613 1.24586 12.6915 1.26897C12.752 1.3152 12.8384 1.38222 12.947 1.46908C13.164 1.64273 13.4704 1.89607 13.8362 2.22129C14.5667 2.87059 15.5413 3.8125 16.5182 4.98477C18.4502 7.30308 20.5 10.6534 20.5 14.5C20.5 15.6179 20.2842 16.6855 19.8919 17.6633C19.8919 17.6633 19.8919 17.6633 19.8919 17.6633C18.6371 20.7913 15.5765 23.0002 11.9999 23.0002C8.42335 23.0002 5.36274 20.7913 4.10791 17.6633C4.10797 17.6632 4.10785 17.6633 4.10791 17.6633C3.71565 16.6855 3.5 15.6179 3.5 14.5C3.5 10.6534 5.54985 7.30308 7.48178 4.98477C8.45867 3.8125 9.4333 2.87059 10.1638 2.22129C10.5296 1.89607 10.836 1.64273 11.053 1.46908C11.1616 1.38222 11.248 1.3152 11.3085 1.26897C11.3387 1.24586 11.3625 1.22793 11.3793 1.21532L11.3993 1.20041L11.4053 1.19597L11.4073 1.1945L11.4086 1.19355C11.5815 1.06677 11.785 1.00226 11.989 1.00001L12.5884 1.19752ZM17.4465 18.049C17.2274 18.0873 16.9943 18.1231 16.7509 18.1535C15.3103 18.3336 13.6783 18.3044 12.4471 17.6888C10.6783 16.8044 8.56028 16.8336 7.00088 17.0285C6.67192 17.0696 6.3603 17.1191 6.07277 17.1718C5.7048 16.3568 5.5 15.4523 5.5 14.5C5.5 11.3465 7.20015 8.44682 9.01822 6.26514C9.91633 5.1874 10.8167 4.31681 11.4925 3.71611C11.6814 3.54815 11.8523 3.40176 12 3.27833C12.1477 3.40176 12.3186 3.54815 12.5075 3.71611C13.1833 4.31681 14.0837 5.1874 14.9818 6.26514C16.7998 8.44682 18.5 11.3465 18.5 14.5C18.5 15.8095 18.1127 17.0286 17.4465 18.049Z" />
</svg>
