<svg width="24" height="24" viewBox="0 0 24 24" fill="currentColor"  xmlns="http://www.w3.org/2000/svg">
<path fill-rule="evenodd" clip-rule="evenodd" d="M1 12C1 5.92487 5.92487 1 12 1C18.0751 1 23 5.92487 23 12C23 18.0751 18.0751 23 12 23C5.92487 23 1 18.0751 1 12ZM9.44719 12.3944C9.94117 12.1474 10.1414 11.5467 9.8944 11.0528C9.64741 10.5588 9.04674 10.3586 8.55276 10.6055L6.55276 11.6055C6.05878 11.8525 5.85856 12.4532 6.10555 12.9472C6.35254 13.4412 6.95321 13.6414 7.44719 13.3944L9.44719 12.3944ZM16.0528 13.3944C16.5467 13.6414 17.1474 13.4412 17.3944 12.9472C17.6414 12.4532 17.4412 11.8525 16.9472 11.6055L14.9472 10.6055C14.4532 10.3586 13.8525 10.5588 13.6055 11.0528C13.3586 11.5467 13.5588 12.1474 14.0528 12.3944L16.0528 13.3944ZM12 14.5C10.4572 14.5 9.35438 15.1248 8.64809 15.7526C8.29915 16.0627 8.04672 16.373 7.87924 16.6095C7.79511 16.7282 7.73122 16.8301 7.68626 16.9063C7.66375 16.9445 7.64588 16.9765 7.6325 17.0012L7.62136 17.0221C7.61047 17.0412 7.60059 17.061 7.59178 17.0814C7.36634 17.5697 7.56825 18.1522 8.05274 18.3944C8.54619 18.6411 9.13385 18.431 9.39108 17.9538C9.39357 17.9492 9.39963 17.9382 9.40934 17.9217C9.42884 17.8886 9.4626 17.8342 9.51129 17.7655C9.60943 17.6269 9.76325 17.4372 9.97681 17.2474C10.3955 16.8752 11.0427 16.5 12 16.5C12.9572 16.5 13.6044 16.8752 14.0231 17.2474C14.2366 17.4372 14.3905 17.6269 14.4886 17.7655C14.5373 17.8342 14.5711 17.8886 14.5906 17.9217C14.6003 17.9382 14.6063 17.9492 14.6088 17.9538C14.8664 18.4308 15.4535 18.6413 15.9472 18.3944C16.4411 18.1474 16.6414 17.5467 16.3944 17.0528L16.3925 17.0537L16.3921 17.0529L16.3939 17.0519L16.3935 17.0509L16.3924 17.0489L16.3901 17.0443L16.3842 17.0328L16.377 17.0191L16.3674 17.0012C16.354 16.9765 16.3361 16.9445 16.3136 16.9063C16.2687 16.8301 16.2048 16.7282 16.1207 16.6095C15.9532 16.373 15.7008 16.0627 15.3518 15.7526C14.6455 15.1248 13.5427 14.5 12 14.5Z" />
</svg>
