<svg width="24" height="24" viewBox="0 0 24 24" fill="none" xmlns="http://www.w3.org/2000/svg">
<path fill-rule="evenodd" clip-rule="evenodd" d="M11.4053 1.19601L11.4081 1.19401C11.5731 1.07301 11.7665 1.00832 11.9611 1.00076C11.9741 1.00025 11.9871 0.999999 12.0001 1L12.0097 1.00005C12.0251 1.0002 12.0404 1.0007 12.0557 1.00155C12.2446 1.01206 12.4311 1.07608 12.5914 1.1936L12.5894 1.19736C12.5919 1.194 12.5927 1.19455 12.5927 1.19455L12.5947 1.19601L12.6007 1.20046L12.6207 1.21537C12.6375 1.22798 12.6613 1.2459 12.6915 1.26902C12.752 1.31524 12.8384 1.38227 12.947 1.46913C13.164 1.64278 13.4704 1.89611 13.8362 2.22134C14.5667 2.87064 15.5413 3.81255 16.5182 4.98482C18.4501 7.30313 20.5 10.6534 20.5 14.5C20.5 19.1944 16.6944 23 12 23C7.59897 23 3.97917 19.6553 3.54388 15.3691C3.51487 15.0833 3.5 14.7934 3.5 14.5C3.5 10.6534 5.54985 7.30313 7.48178 4.98482C8.45867 3.81255 9.4333 2.87064 10.1638 2.22134C10.5296 1.89611 10.836 1.64278 11.053 1.46913C11.1616 1.38227 11.248 1.31524 11.3085 1.26902C11.3387 1.2459 11.3625 1.22798 11.3793 1.21537L11.3993 1.20046L11.4053 1.19601ZM16.8782 8.97045C16.3165 7.98545 15.6573 7.07576 14.9818 6.26518C14.0837 5.18745 13.1833 4.31686 12.5075 3.71616C12.3186 3.54819 12.1477 3.40181 12 3.27838C11.8523 3.40181 11.6814 3.54819 11.4925 3.71616C10.8167 4.31686 9.91633 5.18745 9.01822 6.26518C8.62457 6.73757 8.23644 7.24362 7.8699 7.77862C9.29396 7.68502 10.9891 7.79334 12.4471 8.52232C13.6783 9.1379 15.3103 9.16705 16.7509 8.98697C16.7936 8.98162 16.8361 8.97611 16.8782 8.97045Z" fill="white"/>
</svg>
