<svg width="24" height="24" viewBox="0 0 24 24" fill="currentColor"  xmlns="http://www.w3.org/2000/svg">
<path d="M8 2C7.44772 2 7 2.44772 7 3C7 3.55228 7.44772 4 8 4H10.5C11.0523 4 11.5 3.55228 11.5 3C11.5 2.44772 11.0523 2 10.5 2H8Z" />
<path d="M7 6C7 5.44772 7.44772 5 8 5H10.5C11.0523 5 11.5 5.44772 11.5 6C11.5 6.55229 11.0523 7 10.5 7H8C7.44772 7 7 6.55229 7 6Z" />
<path d="M8 8C7.44772 8 7 8.44772 7 9C7 9.55229 7.44772 10 8 10H10.5C11.0523 10 11.5 9.55229 11.5 9C11.5 8.44772 11.0523 8 10.5 8H8Z" />
<path d="M1.5 12C1.5 11.4477 1.94772 11 2.5 11H5C5.55228 11 6 11.4477 6 12C6 12.5523 5.55228 13 5 13H2.5C1.94772 13 1.5 12.5523 1.5 12Z" />
<path d="M2.5 14C1.94772 14 1.5 14.4477 1.5 15C1.5 15.5523 1.94772 16 2.5 16H5C5.55228 16 6 15.5523 6 15C6 14.4477 5.55228 14 5 14H2.5Z" />
<path d="M1.5 18C1.5 17.4477 1.94772 17 2.5 17H5C5.55228 17 6 17.4477 6 18C6 18.5523 5.55228 19 5 19H2.5C1.94772 19 1.5 18.5523 1.5 18Z" />
<path d="M1.5 21C1.5 20.4477 1.94772 20 2.5 20H5C5.55228 20 6 20.4477 6 21C6 21.5523 5.55228 22 5 22H2.5C1.94772 22 1.5 21.5523 1.5 21Z" />
<path d="M8 20C7.44772 20 7 20.4477 7 21C7 21.5523 7.44772 22 8 22H10.5C11.0523 22 11.5 21.5523 11.5 21C11.5 20.4477 11.0523 20 10.5 20H8Z" />
<path d="M7 18C7 17.4477 7.44772 17 8 17H10.5C11.0523 17 11.5 17.4477 11.5 18C11.5 18.5523 11.0523 19 10.5 19H8C7.44772 19 7 18.5523 7 18Z" />
<path d="M8 14C7.44772 14 7 14.4477 7 15C7 15.5523 7.44772 16 8 16H10.5C11.0523 16 11.5 15.5523 11.5 15C11.5 14.4477 11.0523 14 10.5 14H8Z" />
<path d="M7 12C7 11.4477 7.44772 11 8 11H10.5C11.0523 11 11.5 11.4477 11.5 12C11.5 12.5523 11.0523 13 10.5 13H8C7.44772 13 7 12.5523 7 12Z" />
<path d="M12.5 21C12.5 20.4477 12.9477 20 13.5 20H16C16.5523 20 17 20.4477 17 21C17 21.5523 16.5523 22 16 22H13.5C12.9477 22 12.5 21.5523 12.5 21Z" />
<path d="M19 20C18.4477 20 18 20.4477 18 21C18 21.5523 18.4477 22 19 22H21.5C22.0523 22 22.5 21.5523 22.5 21C22.5 20.4477 22.0523 20 21.5 20H19Z" />
<path d="M12.5 18C12.5 17.4477 12.9477 17 13.5 17H16C16.5523 17 17 17.4477 17 18C17 18.5523 16.5523 19 16 19H13.5C12.9477 19 12.5 18.5523 12.5 18Z" />
<path d="M19 17C18.4477 17 18 17.4477 18 18C18 18.5523 18.4477 19 19 19H21.5C22.0523 19 22.5 18.5523 22.5 18C22.5 17.4477 22.0523 17 21.5 17H19Z" />
<path d="M12.5 15C12.5 14.4477 12.9477 14 13.5 14H16C16.5523 14 17 14.4477 17 15C17 15.5523 16.5523 16 16 16H13.5C12.9477 16 12.5 15.5523 12.5 15Z" />
<path d="M19 14C18.4477 14 18 14.4477 18 15C18 15.5523 18.4477 16 19 16H21.5C22.0523 16 22.5 15.5523 22.5 15C22.5 14.4477 22.0523 14 21.5 14H19Z" />
<path d="M18 12C18 11.4477 18.4477 11 19 11H21.5C22.0523 11 22.5 11.4477 22.5 12C22.5 12.5523 22.0523 13 21.5 13H19C18.4477 13 18 12.5523 18 12Z" />
<path d="M19 8C18.4477 8 18 8.44772 18 9C18 9.55229 18.4477 10 19 10H21.5C22.0523 10 22.5 9.55229 22.5 9C22.5 8.44772 22.0523 8 21.5 8H19Z" />
</svg>
