<svg width="24" height="24" viewBox="0 0 24 24" fill="currentColor"  xmlns="http://www.w3.org/2000/svg">
<path fill-rule="evenodd" clip-rule="evenodd" d="M1 12C1 5.92487 5.92487 1 12 1C18.0751 1 23 5.92487 23 12C23 18.0751 18.0751 23 12 23C5.92487 23 1 18.0751 1 12ZM16.5 9C16.5 8.44772 16.0523 8 15.5 8C14.9477 8 14.5 8.44772 14.5 9V9.5C14.5 10.0523 14.9477 10.5 15.5 10.5C16.0523 10.5 16.5 10.0523 16.5 9.5V9ZM8.5 8C9.05229 8 9.5 8.44772 9.5 9V9.5C9.5 10.0523 9.05229 10.5 8.5 10.5C7.94772 10.5 7.5 10.0523 7.5 9.5V9C7.5 8.44772 7.94772 8 8.5 8ZM12 12.5C10.4572 12.5 9.3544 13.1248 8.64811 13.7526C8.29917 14.0628 8.04675 14.373 7.87926 14.6095C7.79514 14.7282 7.73124 14.8301 7.68629 14.9064C7.66378 14.9446 7.64591 14.9766 7.63252 15.0013C7.62583 15.0136 7.62025 15.0242 7.61576 15.0328L7.60985 15.0443L7.6075 15.0489L7.60647 15.0509L7.606 15.0519L7.60823 15.0531L7.6078 15.0539L7.60555 15.0528C7.35856 15.5468 7.55878 16.1474 8.05276 16.3944C8.54407 16.6401 9.14093 16.4433 9.39037 15.9552L9.39111 15.9538C9.3936 15.9492 9.39965 15.9382 9.40936 15.9218C9.42886 15.8887 9.46263 15.8343 9.51131 15.7655C9.60946 15.627 9.76328 15.4372 9.97684 15.2474C10.3955 14.8752 11.0428 14.5 12 14.5C12.9572 14.5 13.6044 14.8752 14.0231 15.2474C14.2367 15.4372 14.3905 15.627 14.4886 15.7655C14.5373 15.8343 14.5711 15.8887 14.5906 15.9218C14.6003 15.9382 14.6064 15.9492 14.6088 15.9538L14.6096 15.9552C14.859 16.4433 15.4559 16.6401 15.9472 16.3944C16.4412 16.1474 16.6414 15.5468 16.3944 15.0528L16.392 15.054L16.3916 15.0532L16.394 15.0519L16.3925 15.0489L16.3901 15.0443L16.3842 15.0328C16.3811 15.0268 16.3774 15.0198 16.3732 15.012C16.3714 15.0086 16.3695 15.005 16.3674 15.0013C16.354 14.9766 16.3362 14.9446 16.3137 14.9064C16.2687 14.8301 16.2048 14.7282 16.1207 14.6095C15.9532 14.373 15.7008 14.0628 15.3518 13.7526C14.6455 13.1248 13.5428 12.5 12 12.5Z" />
</svg>
