<svg width="16" height="16" viewBox="0 0 16 16" fill="currentColor"  xmlns="http://www.w3.org/2000/svg">
<path d="M5.19695 5.98307L5.19772 5.9846L5.19649 5.98224L5.19695 5.98307Z" />
<path fill-rule="evenodd" clip-rule="evenodd" d="M0.5 8C0.5 3.85786 3.85786 0.5 8 0.5C12.1421 0.5 15.5 3.85786 15.5 8C15.5 12.1421 12.1421 15.5 8 15.5C3.85786 15.5 0.5 12.1421 0.5 8ZM7.24498 6.59975L7.24618 6.60036C7.41459 6.26355 7.27807 5.854 6.94126 5.6856C6.60696 5.51845 6.20098 5.65171 6.0303 5.98306L6.02838 5.98646C6.0246 5.99307 6.0168 6.00624 6.00512 6.02377C5.98099 6.05997 5.94477 6.10801 5.89855 6.15423C5.80241 6.25037 5.70992 6.29544 5.61362 6.29544C5.51732 6.29544 5.42483 6.25037 5.32869 6.15423C5.28247 6.10801 5.24625 6.05997 5.22212 6.02377C5.21044 6.00624 5.20263 5.99307 5.19886 5.98646L5.19695 5.98307C5.02627 5.65171 4.62028 5.51845 4.28597 5.6856C3.94917 5.854 3.81265 6.26355 3.98106 6.60036C3.98337 6.5992 3.9813 6.60084 3.9813 6.60084C4.01248 6.6629 4.04901 6.72243 4.08751 6.78018C4.1486 6.87182 4.24022 6.99423 4.36446 7.11846C4.60923 7.36323 5.0281 7.65907 5.61362 7.65907C6.19914 7.65907 6.61801 7.36323 6.86278 7.11846C6.98702 6.99423 7.07864 6.87182 7.13973 6.78018C7.15013 6.76458 7.25186 6.60391 7.24479 6.60015L7.24498 6.59975ZM9.96922 5.98224L9.97045 5.9846L9.96968 5.98307L9.97158 5.98646C9.97536 5.99307 9.98316 6.00624 9.99485 6.02377C10.019 6.05997 10.0552 6.10801 10.1014 6.15423C10.1976 6.25037 10.29 6.29544 10.3863 6.29544C10.4826 6.29544 10.5751 6.25037 10.6713 6.15423C10.7175 6.10801 10.7537 6.05997 10.7778 6.02377C10.7895 6.00624 10.7973 5.99307 10.8011 5.98646L10.803 5.98306C10.9737 5.65171 11.3797 5.51845 11.714 5.6856C12.0508 5.854 12.1873 6.26355 12.0189 6.60036L12.0178 6.59979C12.0088 6.61858 12.0004 6.63614 11.9851 6.66301C11.9675 6.69369 11.9434 6.73378 11.9125 6.78018C11.8514 6.87182 11.7597 6.99423 11.6355 7.11846C11.3907 7.36323 10.9719 7.65907 10.3863 7.65907C9.80083 7.65907 9.38195 7.36323 9.13718 7.11846C9.01295 6.99423 8.92133 6.87182 8.86023 6.78018C8.8293 6.73378 8.80514 6.69369 8.78762 6.66301C8.77594 6.64258 8.76459 6.62187 8.75403 6.60084C8.75403 6.60084 8.7561 6.5992 8.75378 6.60036C8.58538 6.26355 8.7219 5.854 9.0587 5.6856C9.39301 5.51845 9.79899 5.65171 9.96968 5.98307L9.96922 5.98224ZM5.3087 9.77651C5.64369 9.60902 6.05063 9.74316 6.22071 10.076L6.22121 10.0769C6.22631 10.0863 6.25343 10.1351 6.30317 10.2053C6.37008 10.2998 6.47496 10.4291 6.62057 10.5586C6.90605 10.8123 7.34734 11.0682 7.99998 11.0682C8.65262 11.0682 9.09391 10.8123 9.37939 10.5586C9.525 10.4291 9.62988 10.2998 9.6968 10.2053C9.7263 10.1637 9.75502 10.121 9.77926 10.076C9.94933 9.74316 10.3563 9.60902 10.6913 9.77651C11.0281 9.94491 11.1646 10.3545 10.9962 10.6913L10.9936 10.69L10.9934 10.6905C11.0004 10.6941 10.9475 10.7803 10.9411 10.7911C10.9105 10.8431 10.8669 10.9125 10.8096 10.9935C10.6954 11.1547 10.5233 11.3663 10.2853 11.5778C9.80378 12.0058 9.05189 12.4318 7.99998 12.4318C6.94808 12.4318 6.19618 12.0058 5.71462 11.5778C5.47671 11.3663 5.3046 11.1547 5.19041 10.9935C5.13305 10.9125 5.08949 10.8431 5.05883 10.7911C5.03327 10.7477 5.01877 10.721 5.00441 10.6925L5.00409 10.6919L5.00378 10.6913C4.83538 10.3545 4.9719 9.94491 5.3087 9.77651Z" />
</svg>
