<svg width="24" height="24" viewBox="0 0 24 24" fill="currentColor"  xmlns="http://www.w3.org/2000/svg">
<path d="M14 2C14.5523 2 15 2.44772 15 3V6C15 6.55228 14.5523 7 14 7C13.4477 7 13 6.55228 13 6V3C13 2.44772 13.4477 2 14 2Z" />
<path d="M10 4C10 3.44772 9.55229 3 9 3C8.44772 3 8 3.44772 8 4V6C8 6.55228 8.44772 7 9 7C9.55229 7 10 6.55228 10 6V4Z" />
<path d="M1 10C1 9.44772 1.44772 9 2 9H22C22.5523 9 23 9.44772 23 10C23 10.5523 22.5523 11 22 11V18C22 20.2091 20.2091 22 18 22H10C7.79086 22 6 20.2091 6 18V11H2C1.44772 11 1 10.5523 1 10Z" />
<path d="M20 4C20 3.44772 19.5523 3 19 3C18.4477 3 18 3.44772 18 4V6C18 6.55228 18.4477 7 19 7C19.5523 7 20 6.55228 20 6V4Z" />
</svg>
